<?xml version="1.0"?><svg version="1.2" baseProfile="tiny-ps" viewBox="0 0 900 900" xmlns="http://www.w3.org/2000/svg" xmlns:xlink="http://www.w3.org/1999/xlink"><title>Livin' Aloha</title><g><g fill="#fff" transform="matrix(.1 0 0 -.1 0 900)"><path d="M0 4500V0h9000v9000H0V4500z"/></g><g fill="#d1d1d1" transform="matrix(.1 0 0 -.1 0 900)"><path d="M0 4500V0h9000v9000H0V4500zm1451 2378c98-33 183-118 374-373 79-104 191-253 250-330 341-446 512-823 600-1326l25-138 24-65c47-123 112-195 202-222 68-20 89-18 218 22l116 36 34-6 35-7 42-47 41-47 49-101 49-101 16-69 16-69-5-53-6-54-16-25-17-25-46-20-46-21h-131l-116 46c-65 26-139 52-165 58l-49 12-155-4c-85-1-195-3-245-3h-90l-39 13-39 14-42 38-42 39-27 59c-14 33-35 95-46 138l-20 78-20 195c-38 370-47 407-180 720-108 253-206 452-292 591l-63 101-133 166c-195 244-239 328-264 501l-11 78 7 55 7 54 19 32 20 32 32 20 33 20h31c17 0 46-5 65-12zm3963-679l44-11 34-28 34-29 33-61 34-62 5-63c5-72-1-107-24-129l-15-16h-91l-51 53-52 53-40 78-39 78-1 60v60l19 14c24 17 52 18 110 3zm-357-150l63-30 63-62 63-62 66-100c136-204 180-347 268-859l20-119v-131l-20-42-21-42-23-15c-12-8-39-20-60-25l-37-11-29 11-29 10-20 31c-30 50-49 127-81 340-30 204-63 352-99 448l-21 54-25 28-26 27h-46l-23-25-24-26-4-62-4-62 17-75c82-377 125-646 125-790v-66l-22-44-23-45-34-22-34-23h-65l-36 41-35 41-31 86-31 85-34 196c-19 108-54 279-79 381-51 212-81 378-96 536l-10 110 10 78 10 77 20 47c35 79 79 114 175 138l50 13 55-4 55-5 62-31zm-1024-103c46-17 73-40 95-81l16-30 1-220 2-220 42-280 43-280 5-210 5-210-11-237-12-237-15-50-14-49-32-27-32-27-68 4-67 5-86 43-87 43-54 50-55 50-26 51c-14 28-45 104-69 169-54 144-62 162-132 262-31 44-78 123-104 175l-48 95-54 170c-31 93-89 292-131 440l-75 270v96l26 26 26 26 62-5 62-5 39-21c70-36 106-83 164-214 16-37 54-112 85-167 88-155 114-213 177-383 60-165 100-245 126-255l15-6 9 14 9 14v154l-25 135-25 135-5 296-4 295 9 52c6 29 18 68 28 88l18 35 35 17 34 18h30c17-1 47-7 68-14zm417-63l31-28 24-68 25-68 16-122c8-67 22-162 30-212 8-49 25-165 39-257 14-93 33-210 44-260 11-51 29-147 41-213l22-120 44-138 44-137v-121l-19-38c-23-45-75-93-133-122-63-32-147-59-185-59h-34l-28 15-28 14-16 34c-9 19-19 59-23 89l-6 55 17 262 18 261-12 132c-10 115-41 314-96 615-8 45-17 128-21 185l-6 103 11 58c6 32 18 73 27 92l16 34 31 20 32 21h65l30-27zm-1540-199l31-27 28-56c38-74 74-191 101-326 12-60 38-162 57-225s46-155 59-205l24-90v-110l-13-25c-7-13-27-34-45-47l-33-22-54-6-55-7-47 23-48 24-32 43-33 43-24 82c-14 45-34 143-46 217s-30 180-41 235l-21 100-5 115-6 115 23 53 23 53 40 34 41 35h44l32-26zm4618 7l93-20 44-21 45-22 25-30 25-30v-39c0-22-5-50-11-62-23-44-97-111-216-194-144-100-306-243-400-352l-68-79-59-98c-33-55-79-127-104-162l-44-63-40-30-41-29h-69l-52 26c-75 37-147 96-266 214l-105 105-28 52-28 52-6 49-6 50 25 54 25 55 99 99 99 100 95 71c226 168 446 276 645 317 11 2 67 4 125 5l105 1 93-19zm-1396-910c13-5 46-32 73-61 80-85 95-98 200-179 55-43 125-105 156-138l56-61 12-47 12-47-7-47c-4-25-26-131-50-236l-44-190-23-45-23-45-25-3-26-3-12 15c-7 8-28 50-46 93-19 43-46 93-60 111l-26 32h-76l-34-23c-18-12-40-34-47-47l-13-25 6-53 5-54 52-131 52-132v-72l1-71-31-39-30-38-55-28-54-28-30 6-29 5-33 32-32 31-21 50c-66 152-138 599-157 962l-6 120 17 64c9 35 28 85 42 111l26 47 51 51c56 55 160 122 188 122 10 0 28-4 41-9zm-496-418l24-26 15-51 16-51 9-175c13-230 26-340 57-480l25-115 48-126c27-69 54-146 61-172l11-47-12-47c-6-27-25-71-41-99l-29-51-49-46-49-46-28-7-27-7-26 9-26 9-17 55c-9 30-20 77-23 104l-7 49-28 29-28 28h-93l-29-15c-37-19-50-43-50-92v-39l36-105 35-104 6-71 6-70-18-37-17-36-44-41-44-40h-87l-16 18c-9 10-23 35-32 56l-16 38-15 109c-7 60-32 184-53 277-22 92-47 219-56 282-22 159-48 262-91 366-20 48-42 109-50 134l-14 45v105l36 39 35 40 34 11 35 11 29-17 30-18 25-46c28-52 55-147 86-305 25-124 30-137 73-182l31-33 32-10 32-11 36 15 36 15 20 33 21 33-4 55-3 55-46 100c-25 55-69 170-98 255l-52 155-5 75-6 75 27 32c14 17 43 39 63 49 65 31 217 82 246 83l28 1 25-27zm-3142-550l81-16 160 12c88 6 183 11 211 11h52l64-20 64-20 70-49 69-49 36-48c52-71 91-167 150-370 87-299 98-343 134-519l35-170v-46c0-89-32-144-105-181l-40-21-65-4-65-5-27 11-27 10-17 26-17 27-12 153-13 154-21 34-21 35-37 17-36 17-81-4-81-4-32-17-33-17-16-32-16-32 6-54 6-54 45-113 45-113v-64l-29-29-29-29h-119l-71 35-71 36-29 37c-42 53-83 140-130 272-22 63-58 160-80 215-76 193-84 235-87 490l-2 200-13 96-13 95 7 38 7 37 20 20 19 19h37c20 0 72-7 117-17zm1249-44l38-10 38-38 37-37 16-60c21-73 34-191 48-402 12-181 28-279 59-364l22-56 34-45 35-45 55-28 56-27 127 6 127 6 170 36 170 36 72 2 71 2 29-21 28-21 37-69 37-70 16-61 16-62-11-40-10-40-32-32c-41-41-80-56-169-69l-72-10-163 15c-90 9-239 27-331 40l-168 25h-159l-58 16-59 17-47 42-48 43-26 49-26 48-15 70c-9 39-21 120-27 180-17 176-26 215-85 398-31 94-65 208-76 252l-19 80v156l15 29c31 60 146 88 248 59zm1006-25l31-25 35-72 35-72 25-95c46-177 65-367 45-442l-10-36-45-50-45-50-44-26c-24-14-78-37-120-51l-76-25-97-15c-54-8-132-15-173-15h-75l-40 11c-50 14-83 43-106 94l-17 40-22 190-22 190-24 110-25 110 5 31 6 31 26 24 26 24h323l40 12c22 7 87 40 145 73l105 60h63l31-26zm1288 690l-28-15-9-25c-6-14-10-43-10-65v-40l16-32c9-18 26-40 38-49l21-18h71l21 15 21 15 12 34 11 35-11 42c-15 55-36 87-71 105-35 17-47 17-82-2zm-3229-970l-28-15-17-32-17-32 1-55 1-55 20-46 20-45 31-32 32-32 40-11 39-12 42 12 43 13 37 38 38 38 1 33c6 119-28 196-103 235l-27 14h-63l-63-1-27-15zm1597-97c-16-8-39-24-49-36l-19-21-5-48-4-49 15-30c20-37 38-52 83-68l37-12 41 9 41 9 23 22 22 21 12 38 11 37-17 44-17 44-24 23-24 23-48 4-48 3-30-13z"/></g><g fill="#979797" transform="matrix(.1 0 0 -.1 0 900)"><path d="M0 4500V0h9000v9000H0V4500zm1489 2364l53-27 72-71 72-71 107-145c59-80 163-217 231-305 223-289 330-459 436-685l53-115 58-176 58-176 25-129c14-71 33-167 43-214l17-85 38-77 39-77 31-26c17-14 49-36 72-48l41-21h60l60 1 91 31 92 32h31c16 0 41-5 55-11l25-12 41-58c86-123 150-291 150-394v-50l-18-35-17-35-45-25-45-25-75 1h-75l-111 47-112 47-73 11-74 11-202-7-202-7-53 16-53 15-35 26c-99 73-142 216-180 594-32 313-39 339-180 671-167 391-291 609-485 845-169 207-218 295-250 447l-15 69v135l23 44 22 45 34 22 34 23h83l53-26zm3936-665l40-11 46-48 47-47 20-56c12-30 24-77 26-104l6-48-13-35-12-35-27-13-28-13-39 11-39 10-46 51-46 51-37 74-36 75-5 53-4 54 21 21 21 21h33c17 0 50-5 72-11zm-368-146l58-28 70-70 70-70 56-85c132-198 177-333 249-744l40-230v-141l-20-42-19-43-32-19c-17-11-46-22-65-26l-33-6-31 16-30 15-20 40c-27 52-43 128-75 343-42 286-93 464-150 517l-23 22-23-4-22-3-20-27-20-27-4-53-5-53 16-70c8-38 27-124 41-190s37-190 51-275l25-155 6-120 6-121-20-45-21-46-33-26c-53-39-94-39-134 1l-28 27-28 61c-36 79-55 155-90 354-15 91-48 250-73 355-25 104-58 259-73 345l-26 155-1 130-1 130 19 58 19 57 39 44 38 45 48 15c76 24 84 25 149 21l63-4 57-28zm-1019-109c20-8 49-27 65-42l27-26 11-39 10-40-6-131-7-131 12-105c6-58 27-213 47-345l35-240 5-235 5-235-11-224-11-225-12-38-11-39-34-29-34-30h-114l-58 24c-84 35-163 85-213 134l-43 42-26 56c-15 31-42 99-61 150-43 121-69 171-152 297l-68 103-47 107-47 107-44 148c-24 81-74 253-111 382l-67 235-5 67-6 66 26 26 26 26h108l62-31 61-31 25-32c13-17 38-65 56-106 17-41 72-148 121-237l89-161 58-159c61-166 99-250 127-277l16-17 14 12 14 11v136l-26 149-26 148-5 290-4 290 12 63 11 63 22 32c27 39 60 57 109 57h38l37-16zm406-55c56-44 86-140 111-344 8-71 22-166 30-210s24-147 35-230c12-82 27-178 35-212s26-125 40-202l25-141 41-128 41-127 5-62c3-33 2-78-1-98l-7-37-44-47-45-48-82-38-83-39-57-4-58-4-25 16c-13 9-32 30-41 47l-16 31-5 72-5 71 17 245 17 245-7 80c-12 146-35 308-78 535l-41 225-1 145v145l22 47 22 47 33 21 33 20h62l27-21zm-1529-210l35-31 29-62c32-66 69-196 100-346 11-52 40-162 65-244 25-81 52-183 60-225l15-77-9-39-9-40-30-27-30-27-38-10c-80-23-137-10-191 42-66 63-103 171-137 396-9 58-27 166-41 240l-25 136-1 80-1 80 13 45 12 45 48 47 47 48h52l36-31zm4621 12l90-19 40-20c46-24 79-57 93-95l11-28-14-38c-23-69-68-111-263-248-113-80-260-212-349-313l-75-85-61-100c-33-55-80-128-105-163l-45-63-40-30-41-29h-72l-51 24-50 23-90 75c-49 42-122 110-162 153l-74 77-29 61-29 62v89l20 41 20 41 70 76c209 227 585 461 824 513l61 13 115 1 115 1 91-19zm-1382-921c17-10 56-48 88-83l56-64 97-73c53-40 123-100 155-132l58-58 18-45 17-45-6-53c-7-66-61-306-93-416l-25-83-25-25-24-24-20 11c-23 12-33 29-77 130l-33 75-25 23-26 22h-64l-33-20-32-20-17-35-17-36 11-53c6-29 33-107 59-172l48-119v-77l1-76-21-29c-11-15-40-42-63-60l-41-32-37-7-37-7-35 19-35 19-33 61-34 62-24 94c-51 202-99 556-112 823l-6 130 16 62c32 123 96 208 217 289l65 44h58l31-20zm-519-404l24-24 16-53 16-54 10-155c15-247 28-367 53-485l24-110 47-125c62-164 75-208 75-250v-35l-29-60c-33-70-75-124-127-166l-37-29h-77l-16 25-17 25-18 92-18 92-19 19-19 19-40 5-41 5-36-12-36-12-15-28c-22-43-19-78 20-194 19-58 39-132 45-165l11-59-14-39c-7-22-26-56-41-76l-28-36-43-21-43-21-26 7-26 6-24 29-25 29-10 52c-6 29-16 88-21 131-5 44-27 154-49 245-22 92-47 219-56 282-23 166-48 264-100 394-25 63-50 138-55 167l-10 52 10 39 11 39 41 30c23 16 52 32 64 35l22 6 32-17 32-16 33-72 34-72 32-155 31-155 19-37 19-37 33-25 34-26h81l31 31c37 36 46 65 37 125l-6 44-49 107c-27 60-70 173-96 253l-48 145-5 76-4 76 31 36 32 36 77 29c42 16 95 36 117 44 22 9 55 16 73 17l33 1 24-24zm-3105-556l55-10 158 11 158 12 73-5 72-5 58-26c32-15 81-44 108-64l51-37 43-58 43-58 29-78c39-102 156-502 187-639 53-236 64-335 45-403l-10-36-32-32-33-31-44-16-44-15h-124l-26 20-26 20-11 35-11 34-8 128-8 128-15 30c-9 17-28 41-43 55l-27 25h-193l-37-23-38-23-11-39-12-39 11-56c6-30 28-92 47-137l36-82 6-47 5-46-30-34-30-34-59 2-58 1-40 17c-22 10-59 31-83 47l-43 30-34 51-34 52-41 110c-22 61-66 174-96 253s-64 178-75 220l-20 77-11 270c-6 149-11 302-12 340l-1 71 19 28 18 28 72-5c39-4 96-11 126-17zm1212-40l37-11 32-27 32-26 19-42 18-43 15-103c8-57 19-179 25-273 20-318 51-426 150-522l33-32 45-16 46-15h73c82 0 211 19 382 56l116 26 77 1 76 2 29-20 28-21 48-94 47-95 6-47 7-46-23-47-23-47-44-28-44-28-72-12-71-12-85 6c-103 8-393 43-474 57-31 5-119 14-195 18l-137 8-46 20-46 20-38 38-38 38-28 61-29 62-15 99c-8 55-21 154-29 220l-14 120-66 204-66 204-16 96-16 96 12 51 11 52 17 15c10 9 33 23 52 31l35 15 55 1c30 0 72-5 92-10zm1013-31l35-31 29-62c55-114 111-383 111-527v-64l-19-42-19-41-43-42-42-41-71-34c-83-39-157-59-280-76l-89-11-91 4-91 4-33 19-33 20-24 50-25 50-20 175c-26 220-27 227-52 332l-20 88 6 33 6 34 26 24 26 24 166 1h167l50 21c28 11 88 43 135 71l85 51 37 1h37l36-31zm1286 697c-13-7-30-24-37-37l-13-24-1-37c0-48 15-86 48-120l26-28h77l24 25 25 24v102l-20 39-20 40-30 15c-35 18-48 18-79 1zm-3228-971l-32-13-15-31-16-30v-116l21-45c11-25 34-60 52-78l31-32 38-11 38-10 39 11c47 12 87 42 106 80l15 29v49c0 60-15 106-48 151l-25 33-33 14-33 14h-53l-53-1-32-14zm1612-92c-55-14-95-66-95-123v-32l17-35 16-35 31-19 31-19h90l32 20c17 10 37 29 44 42l12 22-1 42v41l-17 32-16 32-32 19-32 20-30-1c-16-1-39-4-50-6z"/></g><g fill="#595959" transform="matrix(.1 0 0 -.1 0 900)"><path d="M0 4500V0h9000v9000H0V4500zm1491 2363l54-27 80-81 81-80 117-160c65-88 186-251 271-363l153-203 78-130c174-292 282-591 359-996 29-150 53-220 98-288l32-48 44-28 45-28 53-12 54-12 114 36 114 37h31c18 0 45-7 60-15l29-14 40-61c51-76 94-165 121-254l21-68v-125l-23-34-22-34-40-20-40-20h-80l-80 1-69 32c-38 18-99 42-135 54l-66 22-275 1h-275l-54 30-54 30-28 39c-64 87-98 230-129 536-32 317-40 347-185 690-157 371-293 608-476 830-172 208-211 276-250 429l-21 83 4 82 3 81 21 39 20 39 34 19 35 18h81l55-27zm3955-672l40-18 37-43 37-43 19-53c11-29 23-74 27-101l6-49-16-37-15-37-28-11-28-11-36 11-36 11-46 49-46 49-36 73-37 73-5 57-6 56 22 22 21 21h85l41-19zm-393-134l53-27 60-54 60-54 63-88c146-206 198-353 271-774l41-234v-68c0-77-5-101-34-142l-20-29-45-19-44-20-31 6-31 6-23 22-23 22-19 61c-11 33-27 108-36 165-45 287-57 352-76 430-25 100-67 197-98 224l-22 20-27-10-27-9-18-35-18-35 5-70 5-70 30-125c37-153 74-371 95-550l16-135-7-40c-12-77-58-142-116-164l-28-11-34 14-34 14-30 54c-17 29-42 87-55 128l-24 75-27 160c-15 88-49 252-76 365-26 113-60 275-75 360l-27 155-1 135-1 135 18 58 18 58 36 40c40 44 73 64 130 79l38 9 67-3 67-3 54-26zm-997-122l49-24 20-33 20-33 1-210 1-210 16-110c9-60 29-189 44-285l28-175-1-415-1-415-12-74-12-75-20-32-20-33-43-16-44-17-61 16c-72 18-167 65-235 114l-49 36-37 57-36 56-43 119c-53 146-78 196-149 299l-55 80-53 110-52 110-40 125c-22 69-59 193-81 275-22 83-54 194-70 247-17 54-37 130-45 170l-15 73 6 27 5 26 23 22 24 22 63-4 63-4 47-24c26-13 57-33 68-45s60-100 108-196c49-96 111-217 139-269l51-95 42-120c50-142 99-253 124-278l18-18 14 12 14 11v67l-1 66-25 140-26 140-5 307-5 307 12 55 11 55 22 33c13 18 34 38 47 45l25 13h81l50-25zm404-61c50-58 73-135 96-329 8-71 22-164 29-205 8-41 24-141 35-221 10-81 28-188 39-238s30-146 42-214l21-122 44-139 45-139v-61l1-61-12-30c-6-16-22-44-35-61l-24-31-79-41c-43-23-104-48-135-56l-56-15-35 10-35 10-21 26c-11 14-25 44-31 67l-11 41 5 145c4 80 11 210 17 290l11 145-11 125c-6 69-29 231-51 360-23 129-47 276-55 325l-14 90v191l15 51c26 87 64 121 136 122l37 1 32-36zm3070-180c41-9 99-26 127-39l53-24 25-27 25-26 6-33 6-33-18-39c-27-56-82-106-234-213l-134-95-134-130-135-130-42-60c-24-33-70-105-103-161-68-112-130-187-173-209l-28-15h-72l-48 25c-69 34-181 127-286 236l-91 94-27 54-27 55v100l21 43 21 44 81 85c229 243 595 460 856 509l76 14 90-5c50-3 124-12 165-20zm-4633 3c66-37 119-163 173-410 17-78 53-216 80-307s54-193 60-227l11-63-10-38-11-38-27-26-28-26-40-11c-22-6-55-11-74-11h-35l-44 21-44 22-29 45c-16 26-38 71-50 102l-21 55-33 200c-19 110-41 238-51 285l-16 85-2 95-1 95 28 58 29 57 36 25 37 25h20c11-1 30-6 42-13zm3252-921c15-8 54-45 86-81l58-67 98-74c54-41 123-99 154-128l55-55 20-43 20-43v-87l-30-132c-17-72-40-169-51-216l-20-86-22-38c-12-22-30-44-39-50l-17-10-24 22-25 23-37 90-37 89-26 21-27 21-38-5c-21-3-49-13-63-22l-26-17-15-36-15-36 6-39c4-22 30-98 58-171l51-131 5-57c2-32 2-68-2-82-9-35-53-85-105-118l-45-28h-61l-32 19-31 20-25 43c-76 130-155 583-174 988l-6 135 12 53c6 29 22 77 36 107l25 53 52 52c29 29 79 70 112 92l59 38h29c16 0 41-6 57-14zm-517-403c50-57 65-132 77-383l10-185 16-100c23-144 47-232 106-384l51-135 5-53 6-53-37-75-37-75-49-49-49-49-35-12-35-11-20 11c-30 15-49 58-62 139l-12 70-18 30-18 29-30 7-31 7-40-7-40-7-25-30-25-30v-28c0-16 17-84 39-152 21-68 42-146 46-174l6-51-16-39c-8-21-27-53-41-71l-25-33-39-20c-22-11-48-20-59-20h-19l-31 26-31 26-15 51c-8 29-19 92-25 141-6 48-26 151-45 227s-46 214-60 308c-30 195-49 268-104 404-22 54-45 125-52 157l-11 58 12 36 11 36 37 30 36 30 33 6 33 6 24-15c53-35 92-133 132-339l26-133 25-43 25-43 31-20 32-19h71l32 31 31 31 7 34 6 34-11 47c-7 25-32 89-56 142-23 53-64 158-89 234l-46 137-9 62-8 62 9 31c17 61 49 84 191 136l102 37 36 1 36 1 15-17zm-3088-561l58-8 127 8c69 5 169 8 221 6l95-3 75-36 75-37 44-38 44-38 38-59c49-76 65-119 155-425l75-253 34-172 35-172v-119l-21-43-21-43-45-27-46-26-78-5-79-5-25 17c-13 9-32 30-41 48l-16 31-7 137-8 137-19 33c-10 18-31 42-46 53l-27 20-54 5-53 4-56-11-55-12-29-30-29-30 1-57 1-57 47-117 46-117v-31c0-17-7-44-15-60l-15-28-36-12-35-12-44 7-44 6-60 30-59 30-36 39c-46 51-73 106-129 261-25 69-66 179-92 244-25 65-53 148-61 184l-16 66-10 270c-6 149-11 304-12 346l-1 77 20 22 20 22 75-6c41-4 101-10 134-14zm1221-51l41-18 27-32 27-32 14-50c17-55 39-244 56-474 12-170 26-235 65-324l28-62 48-43 48-43 46-13 46-13 102 6 102 7 175 35c96 20 207 39 245 41l70 5 32-20 32-20 27-43c39-61 74-153 81-207l5-47-20-40c-25-49-45-68-107-96l-50-23-140 1-140 2-195 26c-107 15-269 33-360 40l-165 13-35 18c-87 45-137 104-171 204l-20 56-15 125c-8 69-19 161-25 205l-11 80-59 180c-59 179-99 343-99 407 0 18 5 49 10 69l10 35 22 21c13 11 37 25 53 31l30 10 65 1 65 1 40-19zm1002-37l42-45 31-81 32-82 24-115 24-116 7-112 6-112-27-55-27-56-42-34c-62-50-138-85-246-113l-96-25-130-5-130-5-44 12-45 12-27 29-27 29-16 62c-8 35-25 144-37 243-11 99-29 216-40 260-23 96-24 127-4 164l14 28 28 11 28 12 145-2 145-2 45 13c25 7 86 37 137 67 50 30 102 58 115 64l23 9 25-5 25-4 42-46zm1293 719c-8-3-25-15-37-26l-23-20-6-34-6-34 12-45 13-45 29-24 30-25h23c13 0 35 5 48 11l25 11 11 25c6 13 11 40 11 60v37l-20 42-21 42-33 16c-19 9-36 16-38 15-1 0-10-3-18-6zm-3220-969c-8-3-26-11-38-17l-24-11-14-28-14-27v-116l24-50 23-51 32-27c17-14 47-30 66-36l34-9 37 8c49 11 85 38 106 81l18 34v100l-24 51-24 51-33 24-33 23-61 3c-33 1-67 0-75-3zm1563-113l-42-19-15-31-16-30v-31c0-18 7-47 16-66l16-34 33-20 32-20h84l29 15c16 8 36 25 44 37l16 22v91l-18 34-19 34-34 19c-43 23-73 23-126-1z"/></g><g fill="#1e1e1e" transform="matrix(.1 0 0 -.1 0 900)"><path d="M0 4500V0h9000v9000H0V4500zm1490 2364l54-25 86-87 85-87 75-104c41-57 144-194 229-305 258-337 380-536 484-791 56-136 130-374 151-480 8-44 24-129 36-188l20-108 26-65 27-65 48-54 49-53 43-17 42-17h100l94 31 94 31h90l36-38c47-50 116-173 148-264l26-73 5-80 4-80-24-35-23-35-40-20-40-20h-80l-80 1-97 42-97 43-78 15-78 15-215-6-215-7-50 17c-27 9-65 28-83 42l-32 24-30 52c-57 98-80 201-110 496-36 346-37 348-230 801-125 293-260 521-430 725-50 61-118 150-150 198l-60 88-27 87-27 87-1 115v115l23 38 24 37 26 15 27 14 45 1h45l55-26zm3941-665l34-12 39-36 38-36 29-59 28-59 7-53 6-52-12-36-12-36-21-15c-28-19-61-19-103 1l-34 16-50 67-50 66-25 63-25 62v93l17 19 16 18h42c23 0 57-5 76-11zm-378-143l58-28 59-55c103-95 192-228 260-387l39-92 31-124c25-103 74-372 105-577l7-42-12-56-11-55-27-31-26-32-33-13c-18-8-46-14-64-14h-31l-33 33-33 33-16 55c-9 30-30 142-46 249-35 224-69 380-100 462l-21 57-29 31-28 30h-16c-10 0-28-11-41-24l-23-23-7-47-7-46 10-57c6-32 23-107 37-168 33-144 70-359 91-536l17-141-13-55-12-55-34-38-34-38-31-12-30-13-34 16-34 16-25 39c-53 84-80 180-121 422-14 85-46 236-70 335-116 474-133 731-59 882l25 53 32 22c17 12 54 31 82 40l50 18 70-2 70-3 58-29zm-992-119l44-24 22-39 22-39v-200l-1-200 16-110c8-60 26-185 40-276s30-235 36-320l12-154-12-295c-15-384-24-436-87-477l-27-18-55 1-56 2-57 21c-73 28-195 108-231 151-34 40-78 126-102 200-10 30-33 91-52 134l-34 80-57 85c-83 123-106 165-156 287l-44 109-92 320c-51 176-101 356-112 399l-20 80 7 33 6 33 20 19 21 19 32 6 33 6 64-20 64-19 39-32 38-32 69-141c38-78 100-199 139-271 38-71 77-152 86-180 9-27 39-107 66-178l50-127 26-31 26-31 13 18 13 18v52c0 29-13 131-30 227l-30 175v581l11 53 12 53 37 38 38 37h109l44-23zm386-43l21-13 27-56 28-56 18-122c10-67 25-167 34-222 8-55 29-191 45-303s36-229 44-260 24-113 36-182l21-125 46-140 46-140 1-70 1-70-23-42-22-42-45-35-46-35-77-32-77-32-52-1-51-1-26 24-25 24-17 43-16 43 6 153c3 84 9 248 12 363l6 210-17 120c-9 66-34 219-57 340l-40 220-5 136-5 135 16 57 16 56 26 30 26 31 31 9c35 10 61 6 94-15zm3002-184l83-11 79-25 79-25 35-34 34-35 7-35 6-34-22-46-22-45-46-41c-26-23-86-68-134-100-123-83-248-190-365-313l-100-105-94-151-94-152-53-50-53-50-58 4-59 4-68 44-69 44-132 131-132 130-25 55-26 55v106l21 41 21 41 91 94c175 181 414 344 642 438l90 38 85 18c100 21 165 23 279 9zm-4536-20l26-21 40-79 39-79 37-158c42-180 67-275 120-453l37-125 1-66 2-66-14-27-15-27-34-21-34-21-66-4-67-4-40 23-40 24-31 47-32 48-21 67c-11 37-32 137-45 222s-35 207-47 270l-23 115-1 100v100l23 48 24 47 36 30 37 30h62l26-20zm3316-988l86-89 108-83c121-93 166-140 198-202l21-42-5-65c-2-37-14-104-25-151s-30-129-42-182l-21-97-27-52c-15-29-35-57-44-63l-17-10-26 24-25 23-32 80-33 80-28 29-29 28h-24c-14 0-43-9-65-21l-41-20-15-37-16-37 16-60c8-33 34-109 58-170l43-110 4-67 4-67-26-46-27-45-52-30-52-30h-72l-27 21c-31 24-69 87-91 148-60 171-135 709-135 972v97l20 66 21 66 47 62 47 62 78 53 78 53h82l86-88zm-588-342l27-28 16-72 17-71 9-187 9-187 25-146 25-145 65-182 66-182v-80l-19-51-20-50-41-55-41-54-37-25c-20-13-49-27-63-30l-26-6-27 23-27 23-18 90c-9 50-23 100-29 111l-11 21-31 13-30 13-36-6c-20-3-47-13-61-22l-24-16-10-27-10-27 6-33c3-18 19-74 36-125 16-51 34-121 41-157l11-65-23-53-23-53-40-34-39-34-30-6-29-7-30 12-30 13-19 36c-19 38-33 107-45 216-4 33-22 122-41 198s-46 210-59 298c-31 202-44 253-108 414l-51 130v67l-1 67 30 31c36 38 75 60 108 60h24l27-21c50-40 83-127 126-340l29-141 25-37c14-20 39-44 55-54l29-17h60l30 25c16 13 35 38 42 55l13 31-12 52c-6 29-30 93-52 142-23 50-63 154-89 233l-49 143-12 72-12 72 18 38 17 37 28 20c24 17 151 68 250 100 35 11 61 3 91-30zm-3181-535l65-14 101-1c56 0 148 5 205 11l104 10 64-11 64-11 65-32 66-32 57-53 57-52 41-78 40-78 71-240c87-294 104-360 135-526l25-131v-123l-22-44-23-45-57-28-57-29-64-1-64-2-26 14-26 14-17 36-17 36-6 130-7 130-19 39-20 40-28 20-28 21-82-1h-82l-37-16-36-16-19-28-18-28 1-51 2-50 46-117 46-116v-37c0-47-13-71-52-91l-31-16-48 4-49 5-64 32-64 31-36 40c-44 48-84 127-125 245-18 50-56 153-86 231-30 77-62 167-71 200l-16 59-9 265c-5 146-12 301-15 345l-5 80 13 25c14 26 52 50 78 50 8-1 44-7 80-15zm1313-65l44-21 19-27c50-68 63-145 94-552 21-278 75-409 194-473l41-22 115 1 115 1 185 38 185 39 82 1h82l31-30 32-30 38-80 39-80 7-42 6-42-6-36-7-35-29-34-30-33-52-23-53-23-85-5-85-4-150 16c-82 10-213 26-290 37-77 10-167 19-200 19-33 1-90 4-126 9l-66 9-36 16c-19 10-53 33-76 52l-41 35-28 62c-39 83-48 125-71 330l-20 175-64 198c-36 110-72 239-82 288l-17 89 4 54 5 54 20 27c10 15 35 35 54 44l34 18h145l43-20zm977-9l25-17 42-83 42-83 25-106c31-133 46-242 46-338v-74l-21-45-21-45-44-39c-76-67-210-119-361-141l-80-12-116 4-116 3-28 21-28 20-22 45-22 44-10 70c-6 39-17 133-26 210s-25 177-36 221c-10 45-19 97-19 115v34l20 32 19 32 37 7 37 7 92-6 92-6 64 10 64 10 60 29c33 17 93 48 134 71l74 40 26-6c14-3 37-14 51-24zm1278 672c-43-49-48-95-19-159l19-41 23-17 23-16h58l29 29 29 29v41c0 51-15 89-48 124l-26 27h-73l-15-17zm-3194-953l-30-10-25-26-24-26v-155l30-49 31-49 33-22 34-23h89l34 16 34 16 22 31 22 30 4 51 4 51-22 58-22 58-39 26-40 26-52 3-52 3-31-9zm1590-100c-17-6-43-22-57-36l-27-26-6-33-6-34 11-34 11-34 29-27 29-28 40-5 40-5 37 12 37 12 19 32 19 31v76l-14 27c-8 15-25 37-39 50l-24 23-34 4-34 4-31-9z"/></g></g></svg>