<?xml version="1.0"?><svg version="1.2" baseProfile="tiny-ps" viewBox="0 0 900 900" xmlns="http://www.w3.org/2000/svg" xmlns:xlink="http://www.w3.org/1999/xlink"><title>Livin' Aloha</title><g><g fill="#fff" transform="matrix(.1 0 0 -.1 0 900)"><path d="M0 4500V0h9000v9000H0V4500z"/></g><g fill="#d1d1d1" transform="matrix(.1 0 0 -.1 0 900)"><path d="M0 4500V0h9000v9000H0V4500zm1782 2128l59-31 74-79c41-44 109-127 152-186s138-185 211-281c282-366 400-574 508-899 52-159 76-252 99-387 9-55 28-137 41-181l24-82 33-48 34-49 39-28 39-27 57-12 56-12 99 32 98 32h93l29-30c43-45 99-144 134-234l31-80 5-71 4-70-18-35-18-35-40-20-40-19-61-4-61-4-114 46-114 47-70 11-70 10-190-6-190-7-55 17-55 16-45 47-46 46-21 60c-34 93-51 177-68 340-39 377-44 399-171 696-166 391-270 575-457 806-177 218-215 290-244 453l-15 84 7 52 6 51 18 33 18 33 34 19 34 18h67l60-32zm3742-645l41-29 34-67 35-68 4-58 4-58-16-31-16-32-25-6-24-6-35 12-36 11-40 47c-22 26-54 76-72 112l-32 65-4 53-5 53 19 20 19 21 54-5 55-6 40-28zm-399-112l60-28 63-64 64-64 53-80c126-191 166-314 239-736 20-113 36-228 36-256v-50l-23-43-22-43-35-18-35-19h-74l-26 27-25 28-15 45c-8 25-26 119-40 210-46 296-75 422-121 513l-25 48-24 11-24 11-25-16-24-16-12-37-13-37 6-56c4-31 20-114 36-186 38-167 66-324 86-498l16-138-7-37c-4-20-15-53-25-74l-19-36-29-21-29-21h-63l-24 24c-58 58-101 185-135 401-12 72-39 204-61 295-69 284-97 445-106 607l-6 101 12 63c7 35 21 80 31 100 17 33 81 98 98 99 4 1 30 7 57 15l50 15 50-6 50-5 60-28zm-930-115l40-21 17-35 18-35v-380l41-275 40-275 6-195 6-195-12-230-12-230-10-39-11-39-28-29-28-28h-102l-55 19c-71 25-167 84-212 130-42 44-74 104-119 228-43 118-70 172-139 272-102 150-158 289-249 618-30 109-69 245-86 303l-32 105-5 62-6 61 26 26 26 26h80l54-20 53-20 31-32 31-33 61-125c33-69 89-179 125-244l65-120 42-120c48-139 94-238 121-263l18-17 12 12 12 12-1 74-2 74-26 148-26 148 3 300 3 301 24 41 24 42 21 10c52 26 97 22 161-12zm364-44l28-27 21-57 22-58 16-122c8-68 24-172 34-233 11-60 26-164 35-230s27-172 40-235 29-146 36-185c13-81 30-145 72-270l30-90 1-71 1-71-28-42-28-42-47-30c-86-55-202-89-256-75l-25 6-21 30-21 29-10 60-11 59 16 200c28 354 21 443-79 992-9 47-18 132-22 190l-6 105 17 65 17 64 22 24c26 29 52 41 90 41l29 1 27-28zm2891-178l75-15 55-27 55-28 19-35 19-35-7-36-7-37-44-49-45-50-90-62c-141-96-225-168-350-297l-115-119-80-133-80-133-52-49-52-49h-82l-42 21c-62 32-141 95-247 200l-96 94-32 64-32 64v81l22 45 22 46 96 95 95 96 88 66c49 36 136 94 194 128l105 63 107 43 106 43 80 15 80 15 80-5c44-3 114-12 155-20zm-4351 2l28-15 31-60c45-83 58-124 98-301 19-85 50-204 69-265 18-60 41-139 50-175l17-64v-54l1-54-20-26c-11-15-36-35-57-46l-37-18h-96l-30 15c-17 9-43 31-58 49-55 65-76 141-130 463-15 88-32 185-37 215l-10 55 4 80 5 80 21 42 21 41 33 26c38 30 58 32 97 12zm3046-862l32-15 57-65 58-64 81-62c45-34 109-87 141-118l59-55 18-40 19-40v-43c0-23-9-82-20-130-60-264-71-309-90-348l-21-43-22-7-21-7-23 29c-13 16-28 45-34 64-7 19-22 56-35 82l-24 47-19 11c-11 5-34 10-52 10h-32l-33-25-33-26-11-37-12-37 26-75c13-41 41-120 60-175l36-100v-61l-22-44-23-45-49-32-48-33h-75l-26 20-26 20-26 54c-58 120-118 436-145 778l-12 148 4 87 4 88 32 69 32 68 58 56 58 57 54 28c63 32 62 32 105 11zm-476-388l22-24 15-48 15-49 10-165c19-320 51-493 128-693 22-56 45-122 51-145l11-44-7-31c-3-18-19-57-35-88l-28-56-42-43c-23-23-56-48-74-56l-32-13-20 5-20 5-15 27-16 27-12 73-12 73-25 29-25 30h-93l-32-20-32-19-7-36-6-35 37-118 37-117 5-65 5-65-31-48-31-47-32-20-33-20h-72l-16 18c-9 10-23 33-31 52l-14 35-11 95c-7 52-28 160-47 240s-44 206-55 280c-25 175-42 240-97 380l-46 115-4 62-4 61 15 22c8 12 30 32 48 46l33 24h64l30-35 31-35 24-77c14-43 35-130 47-193 25-132 35-155 85-199l36-31h69l38 34 37 35-1 53v53l-47 105c-46 104-100 253-131 362l-16 56v112l33 36 32 35 105 38c58 21 119 39 136 40l31 1 22-24zm-2968-512l84-16 135 8c74 5 174 9 222 8l87-1 73-35 73-35 53-48 53-48 44-91 44-91 26-95c15-52 46-161 70-242 24-80 58-215 75-300l32-153 1-70v-70l-16-32c-19-36-56-65-106-81l-34-12h-123l-23 21c-33 31-38 53-46 188l-8 122-21 42-21 42-35 18-35 18-76-4-76-5-32-17-33-16-15-37-15-36 11-53c6-30 22-82 37-116 14-34 33-84 41-110l15-48-13-30-12-31-24-15-24-16-59 6-59 5-51 28-51 28-34 38c-44 48-75 109-118 234-19 54-56 153-81 218-26 66-54 145-62 175l-15 56-11 260c-6 143-11 295-12 338l-1 79 24 19c28 23 37 23 142 3zm1226-62l41-21 20-33 20-33 16-75 15-75 16-215c18-243 32-324 71-411l27-60 49-44 49-44 56-11 57-12 70 6c39 4 148 22 241 41 94 18 196 36 228 40l57 6 35-11 35-11 19-27c10-15 33-55 50-88l31-62 9-47 9-47-9-33c-13-46-44-82-91-106l-40-20-68-8-67-7-104 8c-57 5-174 18-259 29s-225 26-310 33l-155 13-41 21c-22 11-55 35-73 54l-34 33-27 60-28 60-11 70c-6 39-18 129-26 200l-14 131-60 184c-64 201-91 313-91 386v46l16 34 17 35 20 11c12 6 32 15 46 19l26 8 60-3 61-3 41-21zm912-8l30-25 30-62c17-34 42-105 56-157l25-95 16-132 15-133-15-54-16-53-40-41-39-41-58-30c-82-41-174-67-286-81l-98-13-73 5-74 5-33 19-34 19-22 45-22 45-25 210c-15 116-33 235-41 265s-15 73-15 95v41l15 21 16 22 35 10 35 10 107-6 107-6 61 16 60 16 95 55 94 55 32 1h31l31-26zm1212 652c-48-27-64-95-37-160l14-33 27-21 28-22h53l21 15 21 15 12 34 11 35-11 42-12 43-33 33-33 33h-18c-11-1-30-7-43-14zm-3028-911l-31-13-19-28-18-28 1-56 1-57 22-46 22-46 34-30 35-30 36-7 36-7 46 19 47 19 22 34 23 34v108l-15 37c-19 43-50 79-87 98l-27 14h-48l-48-1-32-14zm1480-101l-32-16-16-35-17-36 5-34c14-83 63-118 161-114l28 1 34 34 34 34v84l-15 32-15 32-29 17-29 17h-77l-32-16z"/></g><g fill="#969696" transform="matrix(.1 0 0 -.1 0 900)"><path d="M0 4500V0h9000v9000H0V4500zm1777 2134l52-25 85-90c47-49 117-133 155-187 38-53 129-173 201-267 72-93 172-230 221-304l89-133 69-142c114-231 195-479 245-755l27-143 29-64c15-35 40-78 54-97l26-34 52-29 53-28h110l58 22c32 12 79 27 104 32l46 11 33-11 33-11 36-49c43-58 118-217 134-282 6-26 11-71 11-100v-53l-20-32-19-32-33-18-33-18h-160l-88 38-89 38-70 15-71 15-226-3-226-3-53 29-52 29-30 45c-57 86-88 219-115 497-8 88-22 198-31 245l-15 85-44 110c-189 482-317 718-540 995-169 211-199 266-231 421l-16 82 4 62 5 61 17 32 17 33 32 19 32 20h81l51-26zm3720-634l43-19 32-46c18-25 41-67 50-93l17-47 1-58v-58l-25-24-24-25h-26c-79 0-184 125-218 261l-14 54 8 29c11 37 24 46 74 46h40l42-20zm-386-118c24-11 67-38 95-60l52-41 66-88c152-203 206-353 280-785l36-206v-107l-20-42-19-43-33-20-33-20h-81l-21 15-22 15-21 57-21 57-30 191c-16 104-41 240-54 300l-25 110-30 61-30 61-23 10-23 11-27-14-26-14-10-38c-15-51-14-73 8-177 11-49 31-144 45-210 28-129 76-461 76-523 0-20-5-54-11-75l-10-38-30-33-30-34-27-10-28-10-32 13-31 13-25 39c-14 21-37 72-51 113l-26 75-30 174c-17 95-48 248-70 340-67 278-99 477-99 621v86l15 59 16 60 25 36 24 35 39 22c21 12 56 26 77 31l39 10 56-4 56-4 44-19zm-955-107l50-15 21-22c11-13 26-33 32-45l11-22 4-223 3-223 37-240 38-240 5-220 5-220-11-218-11-218-16-37c-21-50-41-70-84-82l-36-10-60 16-59 15-64 35c-88 49-127 80-163 131l-30 44-48 129c-59 157-74 186-147 292-31 46-75 124-99 173l-42 90-45 145c-41 129-117 394-168 580l-18 65v52l-1 52 28 21 27 22 56-5 55-5 41-20c49-26 95-76 119-134 21-48 70-146 162-318l61-115 49-137c28-75 63-161 78-190l29-53h40l3 73 3 72-25 143-25 142-2 285-1 285 7 30c4 17 16 47 27 68l19 38 32 14c41 18 53 18 113 0zm408-69l32-33 18-54c9-30 24-101 32-159s22-150 30-205 26-174 39-265 33-205 44-255c11-49 27-133 36-185l16-95 39-120c22-66 42-143 46-170l6-51-11-42-12-42-37-40-38-39-79-38-79-37-57-4-58-4-30 29-29 29-12 60-13 59 17 225c9 124 16 255 16 292 0 85-32 333-65 508-14 74-32 182-41 240l-16 105 4 101 5 101 21 44 21 44 28 17 28 17 34 1h34l31-34zm2890-171c37-8 92-25 122-39l53-25 21-33 20-33v-28c0-61-66-134-210-233-115-78-229-175-331-281-90-93-117-129-194-258-63-105-127-186-164-208l-29-17h-74l-59 31-58 31-103 92c-113 102-165 160-199 225l-22 43-5 48-4 47 19 45 20 44 64 69c217 233 564 442 814 490l70 14 90-5c50-3 121-11 159-19zm-4353 4c11-6 34-31 50-57l30-47 28-90c16-49 41-144 55-210s45-187 70-268 50-175 56-208l11-59-7-35-6-36-29-29-29-29-53-10-52-11-39 9-38 9-35 34c-66 63-91 137-129 368-13 85-33 201-44 258l-20 103v152l12 40 12 41 42 43 41 43h27c15 0 36-5 47-11zm3048-864c16-8 52-42 81-75l54-62 80-60c45-34 109-88 144-122l64-61 19-37 19-37v-103l-31-136c-38-171-73-290-94-319l-16-23h-16c-28 0-51 29-83 110l-32 79-25 26-26 25h-62l-32-20c-17-10-37-29-43-41l-12-22 4-56 5-56 48-120 49-120v-67l1-66-21-28c-11-15-37-41-57-57l-36-30-49-5-48-4-30 26-31 25-27 61-27 60-24 107c-33 146-51 252-71 423l-17 145-1 175-1 175 24 59 23 58 62 63 61 62 55 31c62 36 79 38 119 17zm-494-371c45-18 72-129 80-332 7-159 18-256 46-401l20-104 54-143c30-79 58-161 61-183l6-39-17-51-17-51-43-59-44-59-46-27-45-27-25 6-25 6-14 28c-7 15-21 63-29 107l-16 80-26 23-26 22h-80l-28-14-27-15-12-26c-18-38-16-51 28-191l40-128v-97l-19-37c-23-45-66-87-104-101-41-16-52-14-84 13l-29 25-13 40c-6 22-16 80-22 128-6 49-23 140-39 203-32 132-56 250-65 330-4 30-15 94-25 142l-19 86-45 116c-25 63-49 138-54 167l-10 51 9 32 9 32 23 22c12 11 38 28 58 36l35 15 31-15 31-15 25-47c29-54 47-117 82-286l24-118 26-34c30-39 73-64 109-64h24l31 25 30 26 11 34 11 34-11 43c-7 24-30 84-52 133-52 116-114 299-133 393l-16 74 6 22c20 69 49 91 188 141 92 34 131 40 162 29zm-2946-530l86-17 186 13 186 13 48-12c27-7 74-24 104-39l56-27 61-60 61-60 31-65 31-66 75-255 76-255 29-144c17-80 33-170 36-201l7-55-12-44-12-44-32-32-32-32-44-12c-24-6-67-12-95-12l-51-1-23 13-23 12-15 35-15 36-7 128-8 127-19 34-20 33-34 18-35 18-71-4-72-4-38-20-39-20-12-36-12-37 9-50c5-28 23-81 39-118s34-86 40-109l12-42-7-26-6-25-25-20-26-20h-102l-60 29-60 28-33 33c-55 54-111 186-245 570l-40 115-10 260c-5 143-10 298-11 343l-1 84 24 19c28 23 41 23 150 3zm1194-48c51-19 76-42 99-93l18-42 14-98c8-54 19-173 25-265s18-202 26-244l14-76 24-52c28-61 78-121 118-142 15-7 51-19 79-25l51-11 87 12c48 6 167 26 264 45s196 35 220 35h43l31-19 31-19 31-54c17-29 40-83 52-120l22-67-6-36-7-37-42-42-43-42-49-14-50-15-105 2-105 2-195 26c-107 14-258 30-335 36-156 11-193 19-248 57l-39 26-28 41c-16 23-38 68-49 101l-20 59-21 180-21 180-55 170c-31 94-64 208-75 255l-19 85v106l15 35 14 35 43 19 43 20 55-1h55l38-13zm937-22l31-27 23-46c34-67 71-192 91-306l18-100 1-90 1-90-28-48-28-48-42-31c-59-43-135-76-236-100l-86-21-142-1-141-1-29 21-28 20-23 45-22 45-25 204c-14 113-32 230-40 260s-15 74-15 98v43l11 21 11 20 34 14 35 15 99-7 98-7 65 13 66 12 103 59 103 59h63l32-26zm1225 656c-11-4-28-17-38-28l-19-20-4-39-5-38 23-45 23-45 26-14 25-14 27 7c15 3 36 15 47 26l20 20v101l-14 27c-17 33-44 58-71 65l-20 6-20-9zm-3028-910c-16-5-35-14-44-21-35-30-45-112-22-188l12-41 34-40 34-40 39-10 39-11 28 7c15 4 42 15 59 25l32 19 16 34 16 34v97l-19 40c-41 89-125 124-224 95zm1473-103c-13-7-35-28-47-46l-23-34v-24c0-14 8-41 17-60l16-35 31-20 31-19 54 4 54 4 29 32 28 31v81l-15 29c-8 15-27 38-41 49l-27 21h-82l-25-13z"/></g><g fill="#555" transform="matrix(.1 0 0 -.1 0 900)"><path d="M0 4500V0h9000v9000H0V4500zm1777 2134l52-25 66-65 65-66 144-191c79-106 188-251 243-322 134-178 205-287 284-440 128-247 209-489 259-770 49-281 122-391 280-420l35-6 113 35c63 20 124 36 136 36h23l33-22 33-23 52-86 52-87 28-85 27-85-4-70-4-71-19-22c-11-12-38-30-60-40l-40-19h-127l-95 40-95 40-75 15-75 16-221-3-222-3-48 24-49 24-29 39c-62 87-98 233-124 503-9 94-25 215-36 269l-20 100-69 165c-193 468-293 648-510 915-54 67-116 150-139 185l-41 64-26 81-26 81-5 91-6 90 21 47 21 46 33 21 33 20h81l51-26zm3719-633l40-18 32-39 32-39 20-53 20-53v-116l-22-28-21-27-46 5-46 5-45 49c-25 27-60 76-77 110l-33 60-10 51-11 51 12 23c17 32 28 38 74 38h40l41-19zm-373-125c71-35 119-77 188-163 158-199 219-366 293-799l36-210v-109l-20-42-19-43-33-19c-17-11-44-23-59-26l-28-6-30 16-31 15-20 39c-25 50-34 92-66 299-30 200-47 281-81 385l-25 78-25 29-25 30h-47l-15-15c-9-9-20-34-26-57l-11-40 6-42c3-22 17-88 30-146 37-159 71-359 91-520l17-145-7-47-7-47-22-32c-12-18-34-41-49-52l-27-20h-61l-26 24-27 24-28 61c-35 77-52 143-84 329-14 83-45 233-70 335-24 102-53 239-65 305l-21 120-6 127-6 127 13 61 13 61 28 44 28 44 40 21c23 11 58 25 78 30l38 9 58-4 58-3 52-26zm-960-100c46-17 74-40 95-81l15-30 2-215 2-215 37-240 38-240 5-245 5-245-11-195-10-195-12-37-12-37-29-28-29-28-59 1-59 1-83 40c-46 22-106 58-134 81l-52 41-30 53c-16 29-51 111-78 183l-48 130-65 95c-35 52-85 140-112 195l-49 100-39 125c-22 69-74 247-116 397l-77 272v46l-1 45 23 25 23 25h102l50-25c80-38 102-65 151-175 15-36 65-132 110-215 82-151 91-173 163-368 22-59 50-127 63-150l23-42h40l3 70 3 70-22 115-21 115-9 285-8 285 9 59c5 32 18 75 28 95l18 36 35 17c40 21 70 22 122 4zm402-69l33-33 20-66 21-65 16-139c9-77 22-170 30-209 7-38 21-124 30-190s31-196 49-290c19-93 37-190 41-215s25-99 47-165l39-120 6-56 6-56-13-37c-24-73-89-128-206-172l-64-24h-86l-22 16c-30 21-49 59-57 118l-8 48 18 261 18 262-17 148c-9 82-35 251-58 375l-42 227-1 145v145l23 48 24 47 26 15 27 14 34 1h33l33-33zm2805-157c41-6 108-20 149-32l74-22 39-36 38-37v-78l-19-31c-29-47-85-97-184-166-126-86-251-193-354-303l-88-93-74-122c-40-66-91-144-113-171l-40-51-43-19-42-19-46 14-47 14-67 48c-38 27-116 96-174 154l-105 105-27 54-27 55v97l21 40 20 40 77 81c214 224 533 417 772 468 98 21 154 23 260 10zm-4245-35l33-34 30-73c17-40 42-125 57-188 40-171 68-281 109-420 20-68 39-149 42-180l5-55-18-34-18-35-40-20-40-21h-110l-38 24-37 23-25 42c-39 67-62 146-85 289-12 73-33 190-46 262l-24 129v161l11 40 11 40 43 42 42 43h66l32-35zm3025-840c15-8 52-42 81-75l53-61 91-69c51-39 118-94 149-124l56-55 15-35 15-35v-101l-41-183-40-182-27-55-27-55-21-3-20-3-18 20c-9 10-31 52-47 93l-30 73-26 28-27 27h-61l-32-20c-17-10-37-29-44-41l-11-22 5-56 5-56 42-103c23-57 46-127 52-155l11-52-7-40-8-40-48-47-49-47-34-9-35-10-26 5-27 5-32 39-33 38-27 78c-51 149-98 432-122 740l-14 182 10 68 10 67 23 52 24 53 44 47c23 26 72 66 108 90l65 44h23c13 0 36-7 52-15zm-483-377c18-15 43-73 53-128 5-28 14-135 20-238l9-187 21-110c24-134 45-207 101-350l44-110-1-60v-60l-29-55-30-55-51-51-50-52-33-7-32-7-23 15-23 15-11 44c-6 24-16 68-22 99l-11 57-19 17-18 17-39 5-39 5-36-15-36-15-12-37-12-36 39-122 38-122v-153l-31-38c-39-49-72-72-110-80l-30-6-32 27-31 26-11 37c-6 20-17 85-25 144-8 58-28 161-45 228s-40 181-50 253c-28 183-46 255-97 386-24 62-49 136-55 165l-10 52 15 36 15 35 33 26c19 13 44 28 56 31l22 7 30-16 31-15 25-49c30-60 57-154 80-282l17-96 22-39 21-38 34-23 34-23h55l31 26 30 25 10 35 10 35-15 55c-7 30-27 81-44 114-41 82-125 329-140 416l-13 72 19 38 19 39 42 23c22 12 85 38 140 57l98 34 20-6c11-3 25-10 32-15zm-2951-524l79-17 172 13 172 13 53-7 53-7 62-30 63-30 60-56 60-55 35-72 35-71 70-235c74-247 110-394 137-559l16-101-12-53-12-54-27-26c-34-33-83-53-148-62l-51-6-36 14-36 15-16 33-17 32-7 126-7 126-19 39-18 39-41 18-41 19h-37c-20 0-59-5-86-11l-49-10-28-29-28-29 5-68 6-68 37-85 38-85 1-47 1-48-26-26-26-26-49 1h-49l-43 15c-23 8-62 29-86 45l-43 30-32 49-31 49-40 109c-22 60-61 163-87 229s-56 149-66 185l-19 65-9 240c-5 132-11 283-15 335l-6 95 22 28 21 27h34c18 0 68-7 111-16zm1191-49c47-20 71-41 93-85l18-35 16-100c8-55 20-175 26-267 11-183 27-284 59-369l21-56 36-42c43-50 79-70 147-81l52-8 84 9c47 5 164 26 260 45l176 36 57-4 58-4 24-23c32-31 80-123 101-194l17-59-7-34-6-35-35-39-35-39-52-18-52-18-115 2-115 1-200 27c-110 15-262 31-338 36l-138 9-36 15c-85 36-137 96-172 198l-20 58-21 182-21 182-54 165c-30 91-63 203-75 250l-20 85v126l16 30 15 31 42 19 42 19h116l36-15zm936-24l29-26 30-60 30-59 28-111c29-113 50-256 50-335v-45l-24-51-24-51-44-36c-56-46-133-81-234-107l-79-21-111-6-110-6-47 7-48 7-34 30-35 31-10 36c-6 20-22 127-36 237-13 109-31 225-39 256s-15 79-15 106v50l26 24 26 24 156 1h157l45 18c25 9 75 35 113 57 37 22 81 46 99 53l31 13 21-5c12-2 34-16 49-31zm1187 634l-24-25v-97l20-34 20-34 28-13 27-14 24 6c14 4 34 16 45 28l20 22v87l-14 33-14 33-23 17-23 16h-63l-23-25zm-2965-880c-5-2-23-6-38-9l-28-7-19-32-20-32v-110l24-51 23-51 28-21c15-12 43-26 61-31l34-9 36 10 36 9 35 33 36 32 4 50 5 49-11 43-12 42-30 35-31 35-36 10c-36 10-77 12-97 5zm1448-110l-31-13-18-27-17-26v-75l17-32 16-32 32-16 31-16 51 5 50 4 28 32 28 31v81l-15 29c-8 15-27 38-41 49l-27 21h-36c-20-1-50-7-68-15z"/></g><g fill="#1e1e1e" transform="matrix(.1 0 0 -.1 0 900)"><path d="M0 4500V0h9000v9000H0V4500zm1773 2139c90-46 181-144 354-380 34-46 128-172 210-280l148-196 77-129c97-162 167-318 230-507 55-167 67-215 103-410l25-137 26-65 26-64 41-47 41-47 41-18 40-19h107l92 31 91 31 40-5 40-6 36-40c45-50 103-159 135-253l24-72v-138l-16-28c-22-36-57-56-122-68l-52-9-44 8c-23 4-82 24-129 43-47 20-118 43-157 51l-71 15-227-3-227-2-42 22-41 22-29 35-28 35-27 68c-34 87-54 195-73 398-28 284-40 335-130 555-178 433-297 645-518 918l-115 143-36 68-36 68-20 84-20 84v136l15 36c29 70 60 91 133 92l43 1 42-21zm3717-631c64-24 128-118 149-218l11-55-10-34c-5-19-17-42-26-52l-17-19h-78l-50 46-49 47-39 78c-21 42-42 95-46 116l-6 39 10 27 11 28 22 9 23 9 35-6c19-3 46-10 60-15zm-352-138l63-33 61-65c33-36 87-105 118-153l57-87 37-88c50-119 87-268 131-524l37-215-4-72-3-72-21-28-20-28-45-23-44-23-30 6-29 5-23 22-24 22-19 66c-11 36-31 142-45 235-14 94-37 218-50 278l-24 107-27 60c-14 32-34 66-44 75l-18 17-23-4-22-3-19-26-20-26 1-66v-66l30-128c54-231 101-537 101-652v-56l-19-40c-10-22-33-53-50-69l-31-30h-69l-27 25c-57 53-100 174-134 374-26 156-38 217-84 405-19 80-45 201-57 270l-23 125v165l-1 165 26 56 27 56 33 26c19 14 54 32 79 41l45 16 71-3 70-4 62-33zm-951-105l51-26 18-37 18-37 1-205 1-205 38-250 37-250 8-140 8-140-8-250c-4-137-11-277-14-309l-5-60-20-42-21-42-33-16c-44-21-71-20-143 3-74 23-153 67-212 118l-47 41-31 58c-17 33-43 95-58 139-37 107-84 202-139 278-25 35-65 103-90 153l-45 89-50 155c-55 170-186 633-196 692l-6 37 15 35 14 35 37 10 36 10 57-15 57-14 39-28 40-27 98-190c168-328 177-347 229-490 28-77 62-159 76-183l25-43 16 3 17 3 3 65 3 65-22 115-21 115-9 290-9 290 11 67 11 68 22 32c26 40 59 58 107 58h35l51-25zm376-52c48-51 78-153 97-333 6-58 17-139 25-180s24-139 34-216c11-78 27-171 35-205 8-35 24-120 36-189l22-125 40-125 40-125 5-66 5-65-20-41-21-41-42-36-42-35-76-32-75-31-48-1-48-1-30 29-29 28-12 54-12 54 13 212c25 369 19 455-52 844l-42 228-1 155v155l18 35c10 19 31 45 45 57l27 23h81l27-27zm2815-163c45-6 112-20 149-31l68-21 37-38 38-38v-83l-30-44-30-44-80-58c-43-32-106-77-138-100-94-67-236-197-311-284l-69-79-58-98c-76-128-126-195-171-229l-36-28-41 1-41 1-42 21c-61 32-177 128-270 225l-82 85-26 53-27 52 4 63 4 63 24 34c123 171 411 391 655 499 184 82 295 100 473 78zm-4257-27c58-64 91-151 142-374 20-86 52-209 72-275 41-136 65-241 65-287v-32l-20-32-19-32-30-16c-17-8-51-18-76-22l-45-6-45 17-44 17-26 31c-51 61-82 155-110 338-9 58-28 166-42 240l-25 135-1 80-1 80 13 39 14 39 40 44 40 43h73l25-27zm3098-911c42-43 108-103 146-132 39-30 98-78 133-108l62-54 26-44 26-44v-115l-27-115c-56-240-65-275-83-309-10-19-26-39-35-45l-17-11-17 10-18 11-46 93-46 94-22 19c-29 22-53 23-97 2l-35-17-16-30-15-31 5-47 6-48 46-118 47-118 5-61 6-62-23-41-24-41-35-24c-20-14-49-30-65-36l-29-11-27 6-27 6-31 32c-17 18-40 52-51 77-56 127-113 466-141 830l-11 145 10 63 10 63 25 54 25 54 48 52c26 29 75 69 107 91l59 38h70l76-78zm-547-319c39-35 67-183 68-353v-95l19-130c27-182 43-246 102-397l51-132 5-52 6-52-31-65-30-64-37-42c-20-22-52-50-71-61l-34-21-26 3-27 3-19 25-18 25-14 77-13 77-16 25-16 24-31 7-30 7-32-7-33-7-22-21-23-20v-93l26-75c14-41 31-104 39-142l13-68-8-32c-4-18-12-42-18-53-17-32-88-93-117-100l-25-6-30 12-29 12-20 42-20 41-16 113c-8 63-29 167-45 233-17 66-42 192-55 280-30 196-43 246-94 370-21 52-44 120-50 151l-12 56 7 28 7 29 30 32 31 33 31 10 32 11 25-10 26-10 22-31c32-45 59-128 91-284l28-138 25-38 24-37 37-17 37-18 25 7 26 6 29 31 28 30v93l-20 54c-12 29-31 74-44 100-35 70-114 311-128 389l-12 69 14 32 13 32 31 24 32 24 109 40 110 39 25-5c14-2 33-11 42-20zm-2950-519l73-15 162 12 161 12 63-6 62-5 71-36 71-35 52-52 52-52 35-66c19-36 46-104 60-151 124-411 172-602 191-762l7-58-6-45-7-45-26-30c-14-17-44-40-67-52l-41-21-71-1-72-1-22 20c-12 11-27 31-32 45l-11 25-7 126-6 126-20 33c-10 18-31 42-45 52l-26 19-40 6-39 5-59-12-59-12-28-28-28-28v-105l40-98c21-54 42-115 46-134l6-35-12-29-11-28-26-14-26-14-47 1-47 2-48 21c-25 11-64 34-85 51l-39 31-31 54c-29 50-104 242-193 495l-41 115-8 245c-4 135-11 282-14 328-7 90-2 123 22 146l15 16h39c21 0 72-7 112-16zm1185-49c48-20 71-41 94-87l19-37 15-93c8-51 20-167 25-257 12-192 23-272 51-353 37-111 90-172 173-198l39-13 106 6 106 6 173 35 174 36h117l34-29 33-30 37-79 38-79 5-49 6-49-24-45-25-45-58-30-59-30-130 1-131 1-200 28c-110 15-259 30-332 35l-132 7-55 27-55 27-32 36c-17 21-43 60-55 88l-24 52-15 99c-8 54-21 151-29 214l-15 115-55 169c-31 93-63 205-72 248l-16 80 4 68 4 69 19 22c11 12 34 28 50 35l30 13 63 1h63l36-15zm900 4l30-10 32-45 33-44 28-79c16-44 39-126 50-183l21-103 6-101 6-102-22-45-22-46-41-36-41-37-64-30c-35-17-96-39-136-50l-72-19-141-6-140-6-46 20-45 21-22 45-22 45-14 118c-29 239-36 281-57 374l-21 96 17 36 18 37 35 12 36 11 96-6 96-7 73 15 72 15 93 54c124 73 121 72 164 56zm1228 606l-25-24v-104l20-32 20-33 28-11 28-12 26 10c14 5 33 20 42 33l16 22v77l-20 39c-22 44-46 60-85 60h-26l-24-25zm-2980-884c-16-4-40-13-51-19l-21-11-13-31-13-31 6-59 5-60 26-44 26-44 34-21 33-21h88l32 20c40 24 62 57 70 104l6 35-12 47c-7 26-22 61-33 77l-21 29-41 19c-43 19-71 22-121 10zm1459-105c-17-8-39-24-48-37l-16-23v-88l16-28c9-15 29-35 44-44l28-16h73l29 15 30 15 15 30c19 36 19 71 1 115l-15 35-33 20-33 20h-30c-16-1-44-7-61-14z"/></g></g></svg>