<?xml version="1.0"?><svg version="1.2" baseProfile="tiny-ps" viewBox="0 0 703 703" xmlns="http://www.w3.org/2000/svg" xmlns:xlink="http://www.w3.org/1999/xlink"><title>Livin' Aloha</title><g><g fill="#fff" transform="matrix(.1 0 0 -.1 0 703)"><path d="M0 3515V0h7030v7030H0V3515z"/></g><g fill="#eaeaea" transform="matrix(.1 0 0 -.1 0 703)"><path d="M0 3515V0h7030v7030H0V3515zm429 2403l45-22 72-68c72-69 113-120 326-404 62-83 125-166 140-185 63-78 101-131 185-254 259-381 398-749 488-1290 6-35 44-123 79-183 24-41 65-78 114-102l47-24 60-4 60-4 66 25c36 14 91 30 122 36l55 12 35-15 36-14 30-43c50-68 101-165 127-242l25-72 6-76 6-76-23-41-23-41-51-22-50-21-76 5-75 5-85 40-85 40-88 17-88 17-122-3c-67-2-176-4-242-4h-120l-60 33-60 33-31 47c-16 26-37 65-46 87-26 66-57 235-78 423-34 308-39 340-54 389-17 59-64 178-116 298-21 50-58 135-81 190-120 280-265 523-434 726-38 46-90 111-116 144l-46 60-46 95-47 95-15 105-15 106 11 63 11 62 26 31c31 37 54 47 111 47l45 1 45-22zm4062-689l51-11 38-34 37-34 33-61 33-61 5-63c2-35 2-75-2-89l-7-27-34-16-34-16-45 17-46 17-50 67-50 67-25 68-25 68v88l22 15c27 19 32 19 99 5zm-371-152l65-30 64-61c74-71 150-177 214-296l45-85 40-125 40-125 51-281 51-281v-118l-19-41-18-41-28-21c-15-12-45-27-67-32l-38-11-28 17c-15 9-38 31-51 50l-23 33-33 198c-19 110-46 261-60 338l-27 139-24 65c-13 35-33 78-44 96l-20 32-26 12-26 11-34-20-34-21-11-42-11-42 6-60c3-33 17-100 31-150 29-108 76-371 105-590l22-160-12-51-11-52-36-46-35-46-35-6-35-7-23 11-23 11-30 43-29 43-31 95c-32 100-72 293-72 347 0 17-18 103-40 190-45 176-80 345-112 533l-21 125v115l-1 115 17 57 17 57 33 42 32 43 45 23c25 13 65 27 90 32l45 9 45-5 45-5 65-31zm-1024-124l39-18 22-43 22-44-1-201-1-202 22-140c12-77 33-225 47-330l25-190 5-205 6-205-15-255-15-255-14-37-13-36-28-22-28-22-38-5-39-5-53 17c-71 23-156 66-217 109l-49 36-41 61-41 60-22 67c-35 108-108 274-137 312-31 40-132 198-132 207 0 3-20 51-44 107-46 107-115 315-141 429-9 38-33 123-54 190s-51 174-66 238l-28 117 19 38 19 39 65 3 64 3 41-16 40-15 42-40 43-39 17-43c19-49 99-206 196-387 37-68 72-142 78-165 19-68 110-294 133-328 11-17 29-36 39-42l18-11 16 20 15 20-5 85c-3 47-17 149-31 227l-27 142 3 343 3 343 24 42 24 42 31 16 31 16 46-5c26-3 64-13 85-23zm393-39l24-17 27-61c34-76 57-182 65-306 4-52 15-133 25-180s28-152 40-235c28-200 31-218 79-450l41-201 40-114 40-115v-136l-11-22c-7-12-26-40-43-61l-30-39-101-48-100-49h-106l-21 11-20 11-20 45-20 45v107c0 58 6 194 12 301l13 195-7 120c-9 158-29 307-65 487-17 81-38 211-47 290l-16 143 6 76c9 112 32 165 86 202l24 17h62l23-16zm3086-194c49-6 122-19 162-29l73-19 44-26 44-26 17-45 18-45-26-52-26-53-48-40c-26-22-87-67-135-100-130-90-210-157-343-290l-120-120-40-62c-22-34-66-105-99-158-32-52-78-117-102-144l-44-49-34-16-35-17-28 7c-135 32-435 308-498 457l-15 36v85l21 44 22 44 85 90c166 173 360 312 606 430 101 49 167 70 291 93 89 17 101 17 210 5zm-4674-21l30-21 26-51c45-89 73-176 99-305 14-68 46-195 71-281 70-239 93-330 93-365v-31l-18-35-17-35-33-22-33-22-45-7-44-6-33 6-34 6-43 37-43 37-23 53c-32 72-60 182-79 311-9 59-30 184-47 279l-31 172 5 74 5 73 24 49 24 48 39 29 39 28h19c11 0 33-9 49-21zm3381-966c24-21 47-45 52-53 16-27 99-101 191-170 50-37 116-95 148-129l58-60 14-35 15-35v-86l-29-130c-16-71-37-164-46-206l-16-76-29-60c-15-33-34-64-41-69l-13-7-33 38-33 39-14 47c-20 65-41 104-72 128l-27 21h-29c-16 0-43-6-62-14l-33-14-21-27-22-28v-51c0-64 13-111 56-208l35-77 16-75 16-74-13-47-13-46-30-30c-16-16-47-39-68-49l-38-20h-70l-35 31-35 30-30 77c-43 113-58 177-96 424-34 221-65 516-65 620v54l16 59c8 33 27 84 42 112l26 53 50 49c28 27 78 68 111 90l60 40 32 1h33l42-37zm-564-396c16-13 41-60 54-101l9-31 9-200 9-200 16-104c8-57 29-159 44-225l29-121 37-85c44-101 65-176 65-230v-40l-19-49c-23-61-80-137-134-178l-42-32-32-1h-32l-19 25-20 25-12 87-13 88-32 32-33 33h-45c-54 0-89-12-117-40l-20-20v-109l39-114c21-62 42-136 46-164l7-51-20-44-20-43-42-42-42-43-27-2c-66-4-92 12-117 71l-14 35-11 100-10 101-34 131c-19 72-46 205-60 295s-37 213-52 273l-26 110-44 103-45 104-4 72-5 72 19 31 20 31 46 22 45 22 36-17 36-17 23-46c34-66 63-167 81-279 9-53 21-114 27-135l11-37 35-40c39-46 79-70 116-70h26l39 36 40 35 11 33 11 33-9 39c-5 22-35 98-66 171s-77 196-102 275l-45 143-6 60-5 60 24 34 23 35 48 25c27 13 92 39 145 57l97 33 20-6c11-3 26-10 33-16zm-3273-572l60-14 104-1c58 0 155 5 216 11l112 12 62-11 61-11 65-31 65-31 60-56 60-56 37-65 37-66 31-105c18-59 44-144 58-191 62-200 107-376 131-512l26-145v-128l-20-43-19-43-58-26-58-27h-71l-72-1-22 20c-12 11-27 31-32 45l-11 25-7 131-7 131-25 55-25 54-38 18-37 18-87-4-86-4-37-18-37-18-17-45-17-44 12-67 12-67 40-88 39-87v-89l-17-17c-10-9-32-23-50-30l-33-14-43 10c-24 5-66 19-93 30l-49 21-43 42-44 42-34 68c-19 37-47 107-63 155s-42 121-59 162c-59 144-104 274-113 329l-9 56v390l-15 113-15 113 10 47 11 47 16 13 17 12h30c17 0 58-7 91-15zm1351-64l41-19 20-28c48-67 75-220 93-519l11-180 15-73 16-73 38-77 39-77 48-36c26-20 66-42 87-49l39-13 106 6 106 5 170 37 170 37 102 2 101 1 25-23 25-24 46-90 46-89v-140l-48-48-47-47-59-12-59-12h-81c-109 0-302 17-466 42-74 11-194 24-266 28l-131 7-55 17-55 18-45 41-46 42-22 45c-13 24-31 73-41 109l-18 64-11 106c-6 58-16 143-21 189l-10 83-39 112c-40 119-78 240-106 347l-17 65-1 77-1 77 21 28c11 15 36 36 55 45l34 18h150l41-19zm1030-36l42-44 35-103c20-57 41-121 46-143 15-60 41-272 41-331v-51l-15-44-16-44-42-43-42-44-47-24c-82-42-148-65-237-81l-86-16-135-1-135-1-30 17c-71 39-76 54-115 338-16 118-36 248-45 289-18 85-21 124-11 168l7 31 29 12 29 12 168 1 168 2 69 33c38 18 96 49 130 70 73 44 93 52 126 46l25-4 41-45zm1290 724l-26-31v-99l14-33 14-33 27-21 28-22h75l30 25 30 25 5 27 5 28-10 48-10 47-33 35-32 35h-91l-26-31zm-3290-969c-37-12-66-38-82-77l-14-32v-92l22-52 21-52 30-32c37-39 84-63 126-63h32l37 19c20 11 49 32 64 48l27 28 9 42 10 42-9 46c-9 50-21 75-56 122l-24 31-40 16-39 16-43-1c-23 0-55-5-71-9zm1629-114c-16-7-41-25-54-40l-24-26-5-52-4-53 24-34c31-46 66-70 109-77l36-6 46 20 46 21 21 33 20 33v69l-21 42-20 43-33 21-33 20h-39c-22-1-52-7-69-14z"/></g><g fill="#cdcdcd" transform="matrix(.1 0 0 -.1 0 703)"><path d="M0 3515V0h7030v7030H0V3515zm445 2397l49-27 73-72c40-40 105-117 145-170 85-116 283-378 351-466 145-187 245-346 343-544l75-152 64-193 64-193 45-223 45-223 25-54c13-30 38-74 55-99l31-44 55-32 55-31 54-6 54-6 89 31c48 16 107 33 130 37l43 7 32-11 33-11 26-33c15-18 48-73 74-121l48-88 23-76 24-77v-140l-20-33-20-33-48-21-47-20-65-1h-65l-84 37c-46 20-115 46-155 58l-71 22-275 1h-275l-58 28-57 29-25 32c-13 17-36 57-49 87l-26 55-20 97c-10 53-29 181-40 284-41 370-50 407-135 608-25 61-60 144-77 185-16 41-72 161-123 265l-94 190-90 135c-49 74-128 182-176 240-199 240-252 345-270 542l-7 75 12 57 12 57 33 34 34 34 28 4c46 7 95-3 148-31zm4117-708l37-26 30-47c36-55 49-90 62-155l9-49-10-38-11-38-22-16-21-15h-29c-15 0-41 7-57 15l-30 15-41 52c-51 65-85 131-103 203l-15 54 9 33c5 17 15 36 22 40l13 9 60-6 59-5 38-26zm-508-99c32-8 78-27 103-42 90-53 219-206 307-366l37-68 44-132c24-73 50-170 59-217s32-173 51-280l35-195v-136l-14-32-13-33-32-27c-18-14-49-32-70-38l-38-11-29 13-28 14-23 34c-30 45-36 71-73 301-60 384-99 528-163 598l-20 22h-55l-26-31-26-31v-155l19-74c48-192 84-389 116-648l17-133-6-40c-9-54-39-110-76-142l-32-26h-76l-32 37c-62 70-104 203-145 453-14 91-44 235-65 320-61 243-105 494-116 650l-6 95 11 65 11 65 30 62 31 63 46 27c43 25 124 50 168 52 12 1 47-6 79-14zm-953-152c18-10 40-29 50-43l19-25 9-50 9-50-7-85-7-85 8-124c4-68 19-194 32-280 14-86 33-217 43-291l18-135-1-335-1-335-11-131-10-131-16-36-15-37-33-20-33-20h-80l-68 25c-80 28-162 75-221 127l-42 37-32 59c-17 32-46 99-63 148-49 140-84 209-164 328l-74 111-50 115-49 115-51 170c-69 235-118 407-158 560l-34 130 5 35 5 35 28 24 27 23 56-5 56-5 41-20c22-12 54-33 72-47l31-27 80-161c44-89 109-216 145-282s70-138 76-160 36-105 67-183l56-144 27-29 27-29 16 6 15 6 7 35 6 34-6 62c-4 34-17 121-30 192l-24 130-6 302-5 301 9 56c5 31 17 72 26 92l17 36 31 20 31 19 57-4 58-5 31-19zm394-45l28-22 22-50c31-71 52-170 65-309 5-64 17-147 24-185 8-37 26-148 40-247 15-99 35-220 46-270 10-49 30-149 44-221l26-130 36-105c19-57 39-128 44-158l9-53-10-48-10-49-42-47-42-48-91-42-91-43-49-6-49-6-25 13c-13 7-34 28-47 46l-22 33-7 57-7 57 18 282 18 281-12 129c-17 177-35 298-78 513l-37 185v170l-1 170 23 43 23 43 32 19 32 20h62l28-22zm3196-204c96-18 139-34 186-70l32-25 12-39 12-39-17-46-18-45-56-50c-31-28-82-67-112-87-154-101-299-226-442-381l-79-87-75-125-74-125-52-59c-56-63-101-96-134-96-12 0-54 16-95 37l-73 36-100 90c-56 50-127 119-158 155l-57 64-26 51-25 51v107l19 37c22 42 120 153 201 228 141 128 331 254 507 336 119 55 153 66 258 89l90 19 96-5c53-3 134-12 180-21zm-4780-11l32-28 27-60c41-91 68-180 99-327 16-73 55-221 86-328l58-195 1-72 1-72-33-34-33-34-38-12c-51-15-104-14-144 3l-33 13-41 47-41 46-25 83c-27 87-49 190-67 322-6 44-23 143-37 220l-25 139 4 86 4 85 27 50 28 50 32 23 32 22h53l33-27zm3358-948c20-13 59-50 87-82s78-78 110-103 99-78 147-118l88-74 29-51 30-52v-110l-31-140c-57-266-85-353-122-383l-16-13-19 10-19 10-21 43c-11 24-34 73-51 110l-30 68-35 17-35 16-42-12-41-13-24-23-23-23-7-38-7-39 20-75c11-41 37-114 57-162l37-87 6-64 6-63-21-46-20-47-43-30c-23-17-56-35-74-40l-33-9-26 5-27 6-31 30c-36 36-59 87-93 204-47 163-109 603-121 868l-7 130 16 62c9 35 28 86 43 115l26 52 47 45c25 25 75 65 110 88l64 43h61l35-25zm-566-396c31-14 53-52 71-123l15-58 7-171 6-172 19-135c23-163 55-285 113-434 24-61 49-135 56-163l12-53-21-67-20-68-46-57-45-58-38-24c-20-13-47-27-60-31l-22-6-29 28-29 29-10 55c-6 30-13 70-17 90l-6 37-20 26-20 25-34 7-35 6-37-7-36-6-29-29-28-28v-81l40-124c21-69 42-147 46-174l6-49-16-39c-22-53-62-103-100-126l-31-19h-65l-19 19c-11 11-27 34-36 52l-17 31-13 119-14 118-36 138-35 138-20 140c-12 77-32 187-46 245l-25 105-45 111-45 111-9 57-9 57 12 36 12 36 36 29 36 29 34 5 34 6 28-22 28-23 24-53c32-72 60-177 80-299l16-100 25-42c13-23 39-53 57-67l32-24 25-2c14-1 34-2 44-1l19 1 39 40 38 41v104l-51 115c-28 63-76 189-106 280l-55 165-5 70-6 70 28 33 28 33 41 21c44 23 224 87 243 88 7 0 23-5 36-11zm-3237-585l79-17 140 9c77 5 185 9 240 9h100l60-24c33-13 88-44 121-67l62-44 35-47c19-27 49-76 66-110l31-62 31-108c16-59 41-142 54-183 70-223 123-449 145-623l10-78-11-51-11-50-27-29-26-29-57-20-58-20h-99l-26 12-26 12-16 30-16 31-7 125-8 125-13 44-13 44-31 32-31 33-49 8-49 7-70-11-69-11-26-19-26-19-13-39-13-39 11-60 12-60 40-94 40-94 1-45v-45l-26-23-27-23-35-7-36-6-71 23-72 23-50 41-51 41-43 84c-23 47-53 119-66 160s-49 139-79 217c-31 78-66 174-78 215l-21 73-9 285c-5 157-12 307-15 333s-3 64 1 83l6 35 20 20 19 19h34c19 0 69-7 112-16zm1282-45l50-10 39-34 40-34 16-53c24-76 44-227 57-423 6-93 15-199 20-235 24-168 104-304 205-346 18-7 61-16 96-19l64-6 108 15c59 9 160 27 222 41 198 45 303 50 352 18l22-14 45-87c24-48 50-109 56-135l12-47-6-35-7-36-36-40c-49-54-74-65-171-79l-82-11-178 16c-97 9-250 27-340 40l-163 25h-74c-141 0-224 29-292 102l-40 45-22 58c-29 78-47 169-66 345-18 162-24 190-65 305-42 117-99 317-111 395l-12 68 7 46 7 47 30 34 30 34 42 9c58 13 88 14 145 1zm1070-36l35-38 29-62c61-134 108-364 108-525v-71l-12-40-12-40-49-48-49-48-76-36c-91-44-158-62-280-76l-93-11-97 4-97 4-30 16-30 16-22 39c-26 47-28 55-58 293-13 107-33 233-44 280-12 47-21 100-21 118v33l15 28c8 16 22 32 32 37l18 8 170 1 170 1 50 20c28 12 93 46 145 77l95 57h68l35-37zm1323 723c-13-7-30-24-37-37l-13-24-1-40v-41l23-44 22-45 25-13 25-13 39 5 39 4 20 20 20 20 5 51 4 50-22 46-22 46-29 14c-34 18-66 19-98 1zm-3293-985c-20-4-47-15-61-24l-24-16-18-37-17-37 5-55 6-54 26-54 26-53 30-25c16-14 47-31 67-37l38-11 41 11 42 12 32 26 32 27 13 33 14 32v42c0 23-5 59-12 81l-12 39-38 43-37 43-45 12c-49 12-54 12-108 2zm1627-108c-33-9-74-43-90-73l-15-29v-64l25-44 26-43 29-15 29-15h83l34 16 35 17 10 20c6 11 15 32 19 47l8 28-9 44-10 45-34 33-33 32-44 3c-23 2-52 1-63-2z"/></g><g fill="#a6a6a6" transform="matrix(.1 0 0 -.1 0 703)"><path d="M0 3515V0h7030v7030H0V3515zm449 2399l46-27 76-76 76-76 130-175c71-96 183-245 249-331 269-349 408-599 521-934 55-165 76-246 113-442 52-280 103-379 226-442l41-22 49-5 50-6 104 36 104 36h99l37-40 37-40 51-92 50-93 20-65c11-36 23-88 27-116l7-51-12-44c-15-55-34-77-86-100l-41-18-54-6-54-6-70 27c-38 14-115 42-170 62l-100 37h-560l-46 23c-60 30-91 63-127 137-49 100-68 201-107 560-9 83-25 192-35 243l-19 92-85 203c-211 510-329 720-556 992-100 119-157 200-190 270l-30 62-20 84-20 84 1 75v75l13 38c17 47 42 75 81 94l30 13 49-4 48-5 47-27zm4086-693l41-18 29-34c15-19 42-63 59-99l30-64v-67l1-67-24-26-24-26h-87l-40 36c-22 20-58 64-80 98l-41 61-20 68-21 68 6 31c3 17 11 37 17 45l11 13h103l40-19zm-406-141l64-30 71-73 71-72 56-85c140-211 181-339 269-835l30-170v-150l-19-41-19-41-36-22-37-23-38-5-38-5-36 32-37 32-20 67c-10 36-29 134-40 216-26 184-64 375-96 476l-24 76-30 41-30 42h-21c-32 0-57-18-75-52l-17-32 6-80 5-81 31-125c47-188 111-596 111-705v-42l-15-44-16-44-36-37-36-37-28-6-28-6-30 16-31 15-30 53c-17 28-42 88-55 131l-26 79-34 199c-19 110-53 272-76 361-22 89-54 241-70 337l-30 175-5 110-6 110 16 74 15 73 26 44 26 44 37 25c20 13 62 31 92 40l55 15 60-5 59-5 65-30zm-1052-111c36-13 70-46 91-84l16-30 1-230 1-230 32-195c17-107 38-256 46-330l16-135v-240c0-132-5-327-10-433l-10-193-16-39-16-40-30-25-30-25h-99l-62 21c-75 25-167 79-224 132l-43 40-29 51c-16 28-46 98-66 156-47 132-89 216-161 322-102 149-175 324-254 608-17 63-47 169-67 235-55 187-93 337-93 373 0 37 15 70 39 89l16 12 50 1h50l61-29 60-28 36-42 36-42 17-47c9-26 52-112 95-192 111-207 155-297 175-360 9-30 40-110 67-177l50-122 25-27 25-27 16 17 17 17-2 73-1 72-29 150-28 149v670l18 47 18 47 30 26 31 25h53c30 0 66-5 82-11zm421-63c55-49 93-172 112-361 6-66 18-153 26-193 8-41 26-151 39-245 14-95 34-215 45-267s29-147 41-210l21-115 46-140 45-140v-70l1-70-17-30c-9-16-31-45-48-64l-33-34-93-44-93-44-55-6-54-6-35 35-34 34-12 45-13 44 7 155c3 85 11 216 17 290l10 135-6 85c-10 145-45 387-82 580l-36 185-5 157-4 157 16 49 17 49 28 27c50 47 105 52 149 12zm3204-200c84-18 155-49 190-83l27-26 6-29 7-30-6-33-7-34-49-55-50-54-90-62c-133-91-233-172-338-274-119-116-183-195-262-326-35-58-83-131-107-162l-44-58-46-27-46-26-46 12c-65 17-134 63-251 166-118 104-191 187-227 259l-26 51-1 50v50l24 49 24 50 95 96c182 184 415 343 645 440l98 42 87 19 86 19 120-5 120-5 67-14zm-4784-17c59-60 113-208 156-421 13-68 38-166 55-218s44-148 61-213l30-118v-90l-15-29-15-28-35-22-36-22-63-5-62-5-41 21-42 21-24 32c-55 73-82 161-117 380-12 73-32 193-46 267l-24 134v173l16 49 17 48 38 38 39 39h78l30-31zm3427-1013c50-51 126-118 170-151s112-91 151-130l72-71 16-54 16-54-6-36c-11-69-74-356-90-410-9-30-25-74-37-97l-20-43-21-6-20-7-22 26c-12 14-37 63-55 107l-34 82-33 29-33 29h-19c-31 0-73-20-102-47l-28-27-6-32-6-33 12-53c7-29 32-100 55-158 49-121 57-153 57-220l-1-49-15-29c-9-17-34-46-56-65l-41-35-45-12-45-13-35 16-34 17-31 47-30 48-24 80c-65 216-135 726-135 974v86l14 52c8 28 24 73 37 100l24 48 65 65 65 65 62 31 61 32 29-6 28-5 90-91zm-634-326c23-13 52-69 68-133l12-49 9-196 9-197 16-105c25-167 50-255 123-440l46-115v-70l1-70-30-54c-17-30-51-78-77-107l-48-52-36-17-36-17-24 6-24 6-15 24-16 23-15 84c-9 46-22 96-30 110l-13 26-30 13-31 12-45-6-45-7-26-22-25-22-6-37-5-37 42-137c23-76 44-161 47-188l5-51-15-36c-18-45-71-106-108-125-15-7-42-14-59-14h-32l-27 29-27 29-12 39c-6 21-16 83-23 138l-11 100-38 155-39 155-16 120c-22 163-47 274-85 375-17 47-45 123-62 169l-30 85 4 48 5 49 29 30c35 37 75 59 107 59h24l27-21c51-40 98-172 135-382l20-107 30-42c17-23 43-50 58-60l28-18h73l30 25c16 13 35 38 42 55l13 30-5 44-5 43-53 119c-29 65-75 187-102 269l-49 150-6 67-6 67 13 31 13 31 29 21c39 27 244 106 281 107 16 1 37-4 48-9zm-3235-586l79-17 100 7c55 3 152 9 216 13l116 6 69-21 70-21 59-39 60-38 43-50 44-49 38-80 39-80 29-105c16-58 55-192 86-299 58-201 101-401 112-518l6-68-11-41c-15-54-43-90-94-116l-42-21-77-5-78-5-26 18-26 17-14 34-14 34-6 128-6 127-23 52-23 52-34 18-33 18h-75l-75-1-48-18-47-18-16-30-16-30v-42c0-57 17-115 59-211l36-80 1-47 1-48-28-27-28-28h-62l-62 1-60 27-60 28-38 37-39 37-35 70c-20 39-55 124-78 190-24 66-64 174-89 240-26 66-54 145-62 175l-16 55-10 280c-6 154-11 321-12 371l-1 92 19 21 19 21h42c24 0 78-7 121-16zm1289-45l40-11 41-42 42-41 11-40c19-65 39-229 51-400 13-201 26-292 51-375l20-65 37-55 37-54 49-31 49-30 95-4 94-3 82 12c44 6 142 25 216 41l135 31 87 1 86 2 29-21 28-20 50-100 50-99v-131l-29-38-29-38-53-25-53-24-83-6-83-6-125 12c-69 7-204 23-300 37s-236 29-310 34l-135 8-42 17-43 17-54 59-55 59-25 79-25 78-15 139c-9 77-21 171-27 209l-11 70-53 160c-62 184-92 297-101 377l-7 56 7 46 7 46 30 30 30 30 32 9c45 13 125 13 172 0zm1044-25c84-71 154-287 181-563l11-111-16-56-16-56-41-44-42-45-80-39c-45-21-117-49-161-62l-80-22-177-1h-176l-29 21-28 21-22 44-22 44-26 214-25 214-20 84c-11 47-20 104-20 128v44l24 28 24 28 169 1h168l30 9c38 10 144 64 215 109l55 34 37 1 36 1 31-26zm1323 701l-30-25-7-39-6-39 12-41 12-42 34-29 34-30h25c14 0 38 7 54 15l28 15 12 35 12 36-7 37c-9 49-29 86-61 111l-27 21h-55l-30-25zm-3309-982c-12-2-33-15-46-27l-26-24-11-42-11-42 6-42 7-41 30-56 29-56 32-23 31-24 51-4 52-4 42 21 42 22 19 32c11 18 23 47 26 66l7 33-12 53-12 54-30 41-30 42-34 14-34 14-53-1c-29-1-63-4-75-6zm1642-108l-40-14-22-28c-13-15-26-42-29-60l-6-32 11-34 11-33 35-34 34-33 53-5 53-4 35 24c19 13 40 35 47 48l13 25v80l-18 34c-9 19-28 43-42 53l-25 19-35 4-35 5-40-15z"/></g><g fill="#787878" transform="matrix(.1 0 0 -.1 0 703)"><path d="M0 3515V0h7030v7030H0V3515zm438 2405l60-31 89-92 88-93 79-109c43-61 143-193 221-295 174-227 230-305 311-436 137-223 230-440 323-759 11-38 33-144 50-235 33-177 54-252 98-331 45-84 125-141 215-154l46-7 103 35c57 19 117 38 133 41l28 7 34-11 34-11 35-42c19-22 58-85 85-139l51-98 19-76c11-43 20-97 20-120v-44l-16-40-17-41-51-26-51-27h-150l-110 46c-60 25-135 52-165 59l-55 13h-125c-69 1-181-1-250-3l-125-3-55 21-56 21-36 37-37 38-25 56c-15 31-35 89-45 130l-19 74-17 155c-43 401-60 492-120 635-145 346-186 438-255 572-94 181-197 339-320 488-176 213-223 292-261 444l-21 83 4 98 3 99 21 28c11 15 36 38 54 51l33 22h84l61-30zm4060-682l47-12 51-51 51-51 22-59c13-33 25-83 28-110l5-50-15-38-16-37-27-10-26-10-35 6-34 6-48 49-49 49-41 83-42 82-6 57-6 56 26 26 26 26h21c12 0 42-5 68-12zm-371-154l58-27 75-76c94-94 154-179 218-307 82-163 121-311 187-709l37-220-10-58-11-57-22-31-22-31-41-19c-48-22-75-23-111-7l-25 11-21 33c-31 50-45 113-78 331l-30 202-32 130-31 129-33 59-32 58-26 9-25 9-26-16-25-17-12-42-11-43 7-60c3-33 21-125 40-205 53-229 105-571 105-696v-60l-26-52-26-53-36-24-37-25h-51l-23 16c-13 9-36 37-52 63l-30 46-25 79-25 79-34 196c-19 108-54 277-79 376-24 99-57 254-72 345l-28 165v145l-1 145 19 57 18 56 30 36 30 37 39 19c21 11 56 25 76 30l38 9 67-4 67-4 58-27zm-1021-129l44-26 17-32 18-32 1-220 1-220 16-110c9-60 28-184 41-275 14-91 31-237 37-325l11-160-11-310c-7-170-16-334-21-364l-10-53-20-32-20-33-25-11-26-12h-95l-50 15c-27 8-83 34-124 59l-76 44-43 43-43 43-28 56c-15 30-44 102-65 160-47 131-74 185-140 280-74 107-108 171-159 299l-46 112-51 182c-28 100-76 265-106 367l-54 185-6 72-6 71 26 26 26 26h100l54-20 54-20 37-36 37-36 69-141c38-78 101-200 139-272l70-130 41-120c48-138 109-274 133-294l17-13 16 6 17 6-6 108-5 107-27 138-26 137 3 328 3 327 29 52 28 52 32 16 31 16 49-5 48-5 44-26zm392-42l24-15 24-51c31-70 50-155 69-322 9-77 20-158 25-180s18-107 30-190c11-82 36-229 55-325 18-96 39-204 45-240 7-36 32-128 56-204l45-140 6-61 5-61-22-53-23-53-48-38-48-38-78-32-78-33-42-5-43-5-30 13-30 12-19 32-20 31-11 65-11 65 16 190 15 190v305l-21 148c-11 81-36 231-54 333-19 102-39 228-46 280l-11 94 6 85 6 84 25 53 24 54 43 19 43 20 25-6c14-3 36-12 48-21zm-1609-197l27-15 27-38c52-75 90-190 137-407 15-73 44-184 64-247 19-63 44-151 55-196l21-81v-107l-20-33-21-33-46-21-46-20-63 4-63 4-37 30-38 30-33 60-32 59-15 65c-8 36-36 187-62 335l-47 270v90l-1 90 22 50c26 57 45 81 87 106 36 23 48 23 84 5zm4748 4c88-11 186-43 234-76l36-25 12-25c6-14 11-42 11-63v-38l-30-46-31-46-72-54c-40-29-109-80-155-112-113-80-267-218-355-319l-74-85-78-128c-90-148-132-204-188-244l-40-29h-62l-60 29-61 28-89 75c-50 41-125 111-167 156l-77 82-28 57-28 58 1 55v55l23 44 23 44 91 94 90 93 96 73c134 103 200 146 321 210 129 68 236 111 326 131l69 14 95 1c52 0 127-4 167-9zm-1394-954l32-13 75-79 75-79 85-64c47-35 113-91 148-125l64-61 21-40 21-40-1-65v-65l-43-185c-43-187-66-262-95-306l-15-24h-37l-21 23c-11 12-37 61-57 108l-36 86-22 21c-12 11-33 23-47 27l-25 6-45-23-45-23-19-38-18-39 10-54c6-30 31-105 56-167s50-134 57-160l11-47-7-46-7-46-41-45c-23-25-58-53-79-64l-37-19h-69l-31 26c-17 14-43 45-56 68l-25 43-30 114c-59 229-106 572-117 854l-6 160 17 60c25 83 51 130 104 188 49 51 99 89 167 126 47 25 47 25 88 7zm-524-422l31-25 20-67 21-66 9-186c11-210 24-325 50-456 18-87 35-140 115-359l37-100-4-55-4-55-23-47c-13-26-43-71-66-100l-42-54-45-23-44-24-27 7-27 6-16 25-17 25-18 92-18 92-24 24-24 24h-46l-45 1-30-12-31-13-16-34-16-35 9-42c5-23 26-98 46-165l36-124v-93l-30-52-30-53-40-26-39-26-35-1-35-1-22 20c-12 10-30 37-40 60l-18 41-11 99-12 99-43 185-44 185-16 120c-20 161-47 265-107 415l-50 125-6 68-5 67 50 50 50 50h37c21 0 46-5 56-10 48-26 100-167 140-381 25-129 35-154 85-197 62-55 110-55 164 0l31 32 6 32 6 32-17 58c-9 32-28 81-42 109-57 110-144 374-163 489l-9 55 10 35 10 36 34 27 34 28 128 47c70 25 133 47 140 47 6 1 25-11 42-25zm-3231-580l84-16 137 11c75 6 174 11 218 11h81l59-18c68-22 128-58 190-115 90-83 127-159 203-417 93-311 111-382 146-550l34-165v-139l-20-40-20-41-33-23c-46-30-90-42-165-44l-63-1-27 20c-15 11-33 32-40 47l-14 28-7 137-8 137-19 40-19 39-32 21-32 21-38 6-39 7-55-9c-75-13-103-25-129-58l-22-28 5-65 4-65 47-117 46-116v-27c0-14-7-39-15-54l-14-28-31-13-30-12-54 4-54 4-55 28-55 27-42 41-41 41-38 81c-21 45-49 113-61 151-12 39-42 117-65 175s-57 150-75 205l-33 100-10 275c-5 151-10 324-11 383l-1 109 19 14 20 14h45c24 0 82-7 129-16zm1315-58l38-19 25-33 26-33 14-53c16-62 38-259 54-473l10-151 20-83 20-84 27-49c15-28 45-67 66-89l39-39 51-15 51-15h75l76 1 135 23c74 13 180 34 235 46l100 22 69-4 69-4 37-41 37-42 33-78 33-78 5-52 4-53-12-30-13-31-40-35-41-34-50-15-50-15h-100c-109 0-176 6-476 45-107 13-249 29-316 33l-121 9-52 29-52 28-31 35c-64 73-97 179-118 381-5 58-15 137-21 175l-11 70-55 164c-30 90-66 212-79 270l-24 106v120l18 35 17 35 45 23 45 23 75-3 75-4 38-18zm1015-19l33-32 30-60c55-113 103-318 116-497l6-87-13-46-13-47-50-54-49-54-72-35c-39-18-105-43-146-55l-75-20-115-12-115-11-67 7-67 8-33 21-33 22-23 47-23 47-9 68c-5 37-16 131-25 208s-27 187-40 245l-23 105 5 33 5 32 30 25 30 25h313l45 11 45 10 90 52c50 28 106 60 125 70l35 18 25-6c14-4 40-21 58-38zm1330 717c-15-8-32-23-38-34l-10-19v-108l23-34 23-34 28-14 28-13 31 8 30 9 20 27 20 27v45l-1 44-18 37-17 37-31 19c-37 23-52 23-88 3zm-3324-995l-30-9-24-25-24-26-4-63-4-64 11-35c17-49 65-114 104-137l32-20h82l43 23 43 22 18 35 19 35v112l-12 34c-6 19-20 47-31 63l-20 28-41 19-41 19-45-1c-25 0-59-5-76-10zm1620-118c-18-11-39-30-48-42l-16-23v-93l23-34 22-34 35-18 35-18 43 5c56 7 79 20 102 59l20 32v70l-19 42-19 42-31 15-30 16h-86l-31-19z"/></g><g fill="#4b4b4b" transform="matrix(.1 0 0 -.1 0 703)"><path d="M0 3515V0h7030v7030H0V3515zm436 2409c105-56 183-140 380-409 61-82 147-197 192-255 305-389 451-659 576-1065l46-150 30-165 29-165 26-75 25-75 36-52 35-51 38-26c47-33 92-46 153-46h47l110 36 109 37 35-7 35-7 32-32c44-44 104-148 147-253l36-88 4-86 4-85-18-35-18-35-48-24-47-23-63-5-62-5-85 32c-47 18-113 43-147 56l-62 23-92 12-91 12-157-12-156-11-64 10c-78 13-111 30-160 80l-37 39-27 68c-40 104-56 175-73 328-32 298-47 402-69 490l-23 90-65 155c-219 522-314 694-539 973-65 81-141 181-168 223l-50 76-26 82-25 81-9 76-9 76 8 55 7 55 21 32c11 18 33 41 49 52l29 19h102l49-26zm4063-684c83-24 144-91 181-199l20-60v-92l-15-29c-18-35-43-50-83-50h-29l-42 30-42 31-46 71c-25 39-55 93-65 120l-18 48v48c0 52 5 63 35 80 25 14 60 15 104 2zm-366-158l65-32 65-65 66-65 68-103 69-102 42-97 43-97 34-133 34-133 41-242c43-257 46-296 30-355l-11-37-26-32-27-32-33-13c-18-8-49-14-68-14h-37l-27 28-28 27-21 56-21 57-31 208-31 209-30 125c-35 143-59 204-96 243l-27 27h-34l-26-31-26-31-2-31c-3-69 5-129 42-297 49-224 57-269 81-459 21-176 24-259 9-313-19-68-87-128-144-128h-24l-32 26-31 27-28 56c-39 78-57 138-81 271-42 238-53 290-101 490l-49 206-26 174-26 175 5 125 4 125 21 55 22 55 25 28c36 38 67 57 122 73l48 13 72-3 72-3 64-31zm-1019-129l41-29 18-34 18-35-4-120c-2-66 0-181 5-255l9-135 34-225c19-124 40-281 46-350l12-125-7-285c-3-157-11-336-16-398l-9-113-23-42-23-42-38-19-38-18-55 7-55 7-97 48-97 49-51 45-51 45-35 73c-20 40-50 112-66 160-40 111-81 192-149 292-105 153-170 307-254 604-27 97-72 254-100 347-27 94-53 195-58 225l-9 55 12 35 11 35 35 18 35 17 40-6c22-3 67-18 101-33l60-28 32-40 32-40 35-84c20-45 71-146 114-223 93-168 111-206 162-355 22-62 57-147 77-189l37-75 18-11 18-11 10 15 10 15-5 98-6 98-24 127-24 127-5 285-4 285 9 60c5 33 18 79 28 102l19 42 33 21 33 21 59-5 59-4 41-29zm360-23l25-9 29-40 29-40 22-86c12-47 28-145 37-218 8-72 19-150 24-172s20-121 34-220 34-220 45-270c11-49 29-145 41-213l20-122 46-143 45-142 6-67 6-68-17-45-18-45-45-40c-47-41-113-76-196-104l-48-16h-86l-25 20-26 20-17 42-17 42-5 66-5 65 16 178 16 178v274l-29 200c-17 110-44 274-61 365l-31 165-6 120-6 120 12 55 12 55 25 38 25 39 32 13c38 17 58 18 91 5zm3216-217l74-15 61-27 61-28 22-28 22-28v-105l-33-44-33-43-81-60c-44-33-126-93-181-134l-101-73-108-107c-136-134-163-167-258-321-42-69-93-147-113-173l-37-49-43-25-43-26-45 7c-24 3-62 15-83 26-61 30-177 128-283 237l-96 100-28 54-28 54v130l16 30c25 46 121 153 201 224 146 129 287 225 458 313l106 55 99 32c54 17 126 36 159 41l60 8 90-5c50-2 124-11 165-20zm-4777-12l33-30 27-53c34-67 79-218 112-378 15-68 44-179 66-247 21-67 47-166 58-220l20-98-8-35c-4-19-14-45-22-58l-14-23-41-19-40-20h-125l-28 14c-32 17-84 73-105 114-30 58-49 134-82 327-18 110-41 238-50 285l-17 85-1 105-1 105 18 47 18 46 44 41 45 41h59l34-29zm3345-940l37-20 58-65 57-65 103-79c56-44 125-100 154-126l51-46 26-52 26-52v-89l-40-181c-23-99-50-211-60-247l-20-66-21-27-21-27-27 3-26 3-60 120-60 119-30 12-30 11-32-9-32-8-30-31-31-31v-107l37-98c20-54 47-127 59-163l23-65 1-48v-48l-20-38-19-39-38-29c-62-49-86-57-150-54l-21 1-32 31c-17 17-42 54-56 81l-25 50-24 96c-55 221-86 443-115 805l-10 128 10 69c13 91 40 159 87 221l38 51 60 45c59 45 128 82 153 83 7 0 29-9 50-19zm-549-406l28-14 21-49c27-63 40-146 47-317 8-166 29-347 55-465l18-85 63-165 62-165 1-51v-51l-32-66-32-65-45-50-45-50-34-16c-19-9-45-16-58-16h-25l-20 23-21 22-10 40c-6 22-16 67-22 99l-12 59-25 25-24 24-61-4-61-4-24-28-23-27v-79l36-118 36-117 5-65 5-65-15-36c-8-19-28-51-45-70l-31-36-40-17-40-18-26 6c-15 4-37 18-50 31l-22 25-16 58c-9 31-21 98-26 147-6 50-29 164-51 255s-47 217-55 280c-24 177-43 252-106 422l-59 156v122l40 40c23 23 53 45 67 51l26 10 27-6 27-6 21-22c47-52 91-183 128-382l16-90 19-37 19-37 35-27 35-27h84l34 38 35 37-5 67-5 66-50 110c-63 138-127 325-149 434l-16 84 11 37 11 38 34 30 34 30 43 15c24 9 80 29 124 46 94 35 97 35 134 16zm-3225-587l85-12 188 11 188 10 64-8 64-9 70-38 71-37 58-59 59-58 39-82 39-81 52-175c28-96 64-218 79-271 16-52 44-173 64-267l36-172v-165l-19-35-18-35-40-29-40-28-76-11-75-11-38 15-38 15-20 33-20 34-6 143-7 142-20 38c-10 21-32 47-47 58l-28 21h-193l-32-18-33-17-16-32-16-32 5-51 5-52 46-117 46-118v-80l-29-29-29-29h-129l-71 36-71 35-36 42c-45 53-82 130-133 277-22 64-55 154-75 200-19 47-47 123-61 169l-26 83-9 112-9 111 5 100 5 100-16 115c-9 63-16 132-16 155v40l18 35 17 34 25 8c14 4 37 5 52 3s65-10 112-17zm1306-55c45-18 77-49 101-96l20-37 14-98c8-53 21-190 30-304l15-208 16-77c26-128 68-211 134-267l31-26 57-16 56-17 86 7c91 6 247 32 400 65l95 21h141l24-17c37-25 47-40 93-132l41-85 4-63 4-62-25-44-26-43-49-27-49-27-74-10-74-11-120 11c-66 6-201 22-300 36s-245 29-325 34l-145 9-36 10c-51 16-113 63-154 118l-35 48-20 65-21 64-19 171c-25 216-29 231-90 416-28 85-62 201-76 259l-24 105v134l16 34 16 34 29 17c16 9 48 21 71 26l43 8 45-5c25-3 61-12 80-20zm997 0l35-16 33-52c18-28 40-69 49-90 23-55 62-213 81-325l15-95v-154l-11-28c-5-15-22-45-37-67l-26-38-58-39-57-39-103-35-103-34-78-10c-43-6-120-11-170-11h-92l-35 10-36 10-32 32-31 33-15 42-15 43-21 192-21 193-25 107c-28 126-29 130-8 173l16 33 34 17 34 16 123-7 122-6 74 16 73 15 47 30c75 48 175 101 189 101 8 0 30-8 49-17zm1364 693c-13-7-30-24-37-37l-13-24v-40l-1-40 19-42 19-42 32-16 31-16 30 6 29 7 20 25 20 26v91l-21 43-21 44-29 14c-34 18-47 18-78 1zm-3312-995c-45-14-68-31-84-61l-15-29v-49c0-60 14-104 53-161l29-43 45-20 44-20 39 7 40 7 32 22 33 21 17 35 18 35v91l-15 46-16 45-32 30c-50 48-121 64-188 44zm1625-111c-16-5-41-21-53-34l-24-25-5-49-4-49 16-32 17-32 32-19 32-20h42c51 0 85 12 111 40l20 22 6 34 7 34-12 39-12 40-28 27-27 26-44 4-43 3-31-9z"/></g><g fill="#1f1f1f" transform="matrix(.1 0 0 -.1 0 703)"><path d="M0 3515V0h7030v7030H0V3515zm444 2407l50-24 59-57c66-62 152-166 237-286 30-42 87-118 125-169 185-240 236-308 296-396 172-252 279-479 377-800l51-165 25-150 25-150 24-70c13-39 33-88 45-111l20-40 45-41 45-42 58-17 57-16 41 6c23 3 83 19 134 36l93 30h64l31-19 31-19 46-68 45-69 40-95c22-52 46-122 52-154l12-60-6-44c-3-24-14-57-23-73l-18-29-44-22-44-21-71-5-71-4-65 25c-36 13-103 40-150 58l-85 34h-580l-47 23-48 24-39 45-40 45-30 91c-41 121-57 211-71 387-22 283-55 431-140 625-26 61-71 166-100 235-131 310-261 528-456 765-58 72-127 162-152 200l-46 70-22 61c-30 81-54 201-54 267v53l15 50 15 50 24 23c13 12 41 29 63 36l38 14 35-6c19-3 57-17 84-31zm4117-706l39-26 34-48 35-47 15-56 16-55v-106l-17-29-18-30-23-6c-13-3-39-3-59 0l-37 6-48 48-49 48-46 92-46 92-5 50-4 50 27 27 27 27 60-6 59-5 40-26zm-422-130l55-28 77-78 77-78 61-93 61-94 45-107 45-107 29-118c38-154 55-243 86-438 27-176 30-240 14-300l-11-39-32-32-32-32-44-12-43-12-36 14-36 13-28 55-27 55-19 100c-11 55-27 154-36 220-36 272-100 482-160 521l-24 15-20-11c-12-6-28-24-36-40l-15-29v-107l50-235c57-271 65-322 84-516l14-142-12-58c-13-67-30-94-77-129l-33-24h-67l-25 16c-31 21-65 79-99 167l-25 69-35 196c-19 108-55 283-80 387-57 237-70 298-90 455l-17 125v100l-1 100 12 60 13 60 23 40c13 22 35 51 49 64l25 24 53 19 53 18 90-3 90-3 54-28zm-1054-115c49-23 88-65 104-111l12-35-7-145-6-145 16-160c9-88 27-225 41-305 13-80 29-190 36-245l12-100-1-240c-1-132-6-321-12-420l-10-180-11-40-11-40-39-38-39-39-69 4-69 4-98 48-99 49-65 66-66 66-52 132c-29 73-52 137-52 143 0 19-48 106-105 189-31 45-78 124-104 174l-49 92-50 150c-28 83-76 242-107 355-32 113-70 248-86 300s-32 118-36 147l-6 52 12 29 12 28 31 18 30 19 52-7 51-6 61-30 62-30 30-48c17-26 50-90 75-142 24-52 76-152 115-222l71-126 44-114c25-62 50-131 56-153s30-78 53-125l43-85h30l5 35c7 49-6 196-29 320l-20 105-3 330-3 330 18 52 18 52 35 31 35 30h104l40-19zm414-50l27-19 22-45 22-44 19-94c11-52 25-139 31-194s17-131 26-170c8-38 23-142 34-230s32-207 45-265c14-58 32-151 40-208l15-103 34-107c19-59 42-135 50-168l16-62v-107l-24-52-24-51-59-40-58-39-75-27-75-28h-43l-43-1-27 20-27 19-19 39-20 40-4 80-4 80 16 183c9 101 16 233 16 293v108l-16 113c-8 62-33 219-55 348s-45 263-50 298l-11 62 4 123 3 122 24 54 25 53 30 19 31 19h77l27-19zm3118-192c43-6 114-22 158-37l80-26 40-37 40-38-1-54v-55l-27-35c-42-55-84-91-204-174-142-99-299-237-406-357l-83-94-44-73c-113-190-180-278-232-305l-27-14h-82l-36 15c-52 22-109 65-233 177l-107 97-51 68-51 69-12 47-12 48 6 51 6 51 27 41c40 60 217 233 308 300 178 132 348 228 510 288 150 55 274 69 433 47zm-4697-30c17-17 44-58 60-89l29-58 30-109c17-59 42-162 56-228 15-66 44-174 65-240s46-162 56-213l17-93-13-42c-15-52-43-83-88-98l-35-11h-123l-30 15c-50 26-90 80-125 169l-21 53-33 200c-19 110-44 250-55 310l-21 110 3 105 4 105 16 30c9 17 35 49 59 73l42 42h75l32-31zm3333-933l33-13 62-69c60-67 80-84 193-170 89-68 171-146 201-193l28-45v-141l-50-207c-52-218-67-263-94-291l-17-17h-46l-16 18c-8 9-31 53-50 97-20 43-47 94-62 112l-26 33h-30c-38 0-82-22-108-56l-21-27v-89l60-160 60-160v-119l-14-27c-31-58-134-132-184-132-13 0-36 7-53 15l-29 16-30 40c-43 60-68 135-105 320-46 228-61 337-81 601l-17 227 17 88 17 88 26 45 26 45 70 67 69 67 51 26c58 29 75 30 120 11zm-535-412c31-21 51-64 68-146l15-69 9-187 9-187 26-152 25-152 66-178 67-178 1-60 1-60-34-67-35-67-58-58-58-57-52-1h-52l-18 31-18 31-10 59c-6 32-18 78-26 101l-15 42-35 11-34 12-42-7-41-7-24-24-23-23v-81l30-86c16-48 37-124 45-168l15-82-14-46c-17-57-45-94-98-130l-41-28h-69l-28 29-29 28-15 54c-8 30-20 90-25 134-10 81-36 206-71 346-11 42-29 138-40 214-30 203-43 259-94 387-25 64-53 144-62 178l-16 62 7 34 6 34 31 36c36 41 77 64 112 64h24l32-26 31-27 23-46c23-45 46-132 85-318l20-91 20-40 20-40 34-21 34-21h58l32 20 32 19 12 41 12 40-12 54c-6 29-28 87-48 127-61 128-140 366-156 470l-11 76 15 39 15 38 39 28 40 28 95 30c52 17 102 35 110 40s26 10 40 10h26l22-16zm-3241-581l93-16 174 13 174 13 67-6 67-6 76-38 76-38 55-51 56-52 34-57 34-57 49-144c26-80 48-151 48-160 0-8 18-70 40-137l39-122 41-190c23-104 44-222 47-261l6-71-13-37c-6-20-24-51-38-68l-26-31-51-23-50-24h-142l-28 22-27 21-15 35-14 34-8 145-8 144-20 26c-10 15-32 36-47 47l-28 21-86-1h-87l-30-16c-17-9-38-25-48-36l-18-20-5-33-6-34 15-55c9-30 30-89 47-130l32-75 5-55 5-56-28-33-27-33-81 4-81 3-70 42-70 41-42 64-42 63-65 180c-35 99-77 207-91 240-15 33-38 103-52 155l-24 95-10 265c-5 146-12 296-15 334-3 37-3 84 1 103l6 34 20 20 19 19h37c20 0 79-7 130-17zm1331-66l47-23 28-46 28-45 14-84c8-46 21-183 30-303 17-241 31-328 67-427l24-66 34-41 34-42 55-28 56-27 90 1 90 1 150 27c83 15 177 34 210 41 33 8 89 17 126 20l65 7 36-15 35-15 26-34c14-18 40-63 57-100l31-66 11-60 11-60-24-48-24-49-40-27-40-28-60-15-59-15h-73c-40 0-161 11-270 25-316 41-351 45-495 54l-136 8-64 35-63 35-41 58-42 59-17 54-17 54-19 166c-25 219-29 235-103 468l-64 199-16 100-16 100 7 40c12 80 34 104 118 132l40 13 58-5 59-5 46-23zm982 8c38-19 72-65 110-146l30-66 30-134c16-74 34-182 40-240l11-106-11-43c-34-127-147-213-346-265l-97-25-101-9-101-8-71 7-71 7-32 22-31 23-20 39c-27 51-36 101-60 319l-21 185-19 77c-11 42-20 91-20 110v33l20 33 20 32 28 11 27 11 116-6 115-7 80 16 79 16 75 44c162 93 170 96 220 70zm1373 695c-25-10-49-43-58-81l-6-26 11-42 11-42 28-31 28-31h66l29 31 28 32v75l-19 40c-20 44-45 70-76 78l-20 6-22-9zM1857 2410c-51-10-82-28-98-56l-13-25 1-62 1-62 12-30c17-43 58-94 94-116l31-19h86l40 21 41 20 19 42 19 42v31c0 43-26 127-50 156-36 47-115 72-183 58zm1622-110c-14-4-38-15-52-25l-27-17-10-40-11-39 6-22c4-12 11-35 17-50l11-28 38-20 38-19h31c17 0 46 6 64 14l33 14 17 23 16 23v99l-22 34-21 35-33 14c-37 15-56 16-95 4z"/></g></g></svg>